<svg width="274" height="93" viewBox="0 0 274 93" fill="none" xmlns="http://www.w3.org/2000/svg">
<path d="M2.14705 38.8655C5.81354 37.0365 9.47969 35.2075 13.1462 33.3784C15.5712 32.1685 18.0096 30.9533 20.5998 30.1558C23.1978 29.3557 25.9064 28.9883 28.6033 28.6481C37.1299 27.5723 45.6868 26.736 54.2604 26.1401C55.5487 26.0506 56.8638 25.9688 58.1142 26.2915C59.1851 26.5677 60.1575 27.1279 61.1148 27.6816C64.6082 29.7028 68.1015 31.7236 71.5949 33.7448C73.8988 35.0779 76.2131 36.4179 78.2847 38.0894C83.1846 42.0434 86.5496 47.7068 91.6807 51.3556C91.0994 52.7196 89.4186 53.0579 87.9638 52.7715C86.509 52.4852 85.4873 51.6662 84.3057 50.771C81.6115 48.7296 79.7566 47.2129 77.0525 44.8624" stroke="#26211D" stroke-width="0.843984" stroke-miterlimit="10" stroke-linecap="round" stroke-linejoin="round"/>
<path d="M59.6722 29.6671C64.1938 32.7724 68.7151 35.8777 73.2366 38.983C73.9314 39.4601 74.6371 39.9473 75.1613 40.6072C75.7476 41.345 76.0704 42.2513 76.3963 43.1352C77.9053 47.2258 79.6899 51.2146 81.7339 55.0661C82.393 56.3079 83.0842 57.5477 83.4799 58.8969C80.9958 60.0557 77.7214 59.0964 76.2551 56.7803" stroke="#26211D" stroke-width="0.843984" stroke-miterlimit="10" stroke-linecap="round" stroke-linejoin="round"/>
<path d="M57.4658 33.5481C61.6512 36.2695 65.9096 39.0562 69.052 42.9356C70.5008 44.7243 71.6825 46.7113 72.8587 48.6902C74.3551 51.2078 75.8512 53.7255 77.3477 56.2434C76.937 56.5961 76.3505 56.6479 75.8094 56.6262C73.3427 56.5272 71.0368 55.2365 69.2827 53.4994C67.5283 51.7624 66.2608 49.6008 65.1123 47.4152C64.866 46.9465 64.6174 46.4664 64.2364 46.0987C63.7626 45.6414 63.1284 45.3997 62.5303 45.1243C60.7085 44.2854 59.0781 43.0337 57.7972 41.4904C55.8041 41.7037 53.7043 41.1756 51.711 41.3893C51.3549 41.4274 49.9252 42.3047 47.7003 42.7508C44.3302 43.4263 44.0805 43.5879 40.6601 43.7254C39.1019 43.7882 37.4364 43.9875 35.905 44.28C34.7486 44.5009 33.5923 44.7386 32.4197 44.8435C30.3229 45.031 29.08 43.9339 27.0059 44.2945C23.478 44.9077 19.8161 48.0835 17.0996 50.4162C14.0983 52.9935 10.8082 56.2262 7.13578 60.3164" stroke="#26211D" stroke-width="0.843984" stroke-miterlimit="10" stroke-linecap="round" stroke-linejoin="round"/>
<path d="M32.0436 44.9141C34.3206 47.204 38.1526 48.1455 41.2937 48.895C44.4347 49.6444 46.7977 50.1287 49.913 50.9802C55.6519 52.5489 61.0542 55.5078 66.9713 56.128C68.6609 56.305 70.3322 56.7054 71.337 55.3355" stroke="#26211D" stroke-width="0.843984" stroke-miterlimit="10" stroke-linecap="round" stroke-linejoin="round"/>
<path d="M55.2227 41.5278C54.9165 42.2798 54.5161 42.9936 54.0341 43.6466C53.9387 43.7757 53.8357 43.9152 53.8355 44.0758C53.8351 44.2842 54.005 44.4482 54.1618 44.5854C54.6196 44.9853 55.0846 45.3902 55.6311 45.6565C55.9644 45.8188 56.3208 45.9261 56.676 46.0323C60.0033 47.0249 63.1811 48.0187 66.2975 49.5499" stroke="#26211D" stroke-width="0.843984" stroke-miterlimit="10" stroke-linecap="round" stroke-linejoin="round"/>
<path d="M53.8806 43.8956C53.202 46.1336 51.3244 47.8046 49.3358 49.0351" stroke="#26211D" stroke-width="0.843984" stroke-miterlimit="10" stroke-linecap="round" stroke-linejoin="round"/>
<path d="M67.3734 31.2908C68.5148 31.5568 69.6558 31.8229 70.7973 32.0889C74.0269 32.8418 77.264 33.597 80.3917 34.6989C81.2878 35.0149 82.1739 35.3588 83.0775 35.6532C86.0469 36.6212 89.166 37.0427 92.1765 37.8734C92.4438 37.9471 92.7477 38.0581 92.8366 38.3205C92.8823 38.4552 92.8592 38.6026 92.8308 38.7418C92.5991 39.8748 91.9457 41.0186 90.8568 41.4078C90.2332 41.6307 89.5499 41.58 88.8897 41.5268C86.3303 41.3199 83.974 41.2003 81.4145 40.9933" stroke="#26211D" stroke-width="0.843984" stroke-miterlimit="10" stroke-linecap="round" stroke-linejoin="round"/>
<path d="M74.4603 51.8743C74.1292 52.1266 73.9605 52.5508 73.9407 52.9669C73.9212 53.383 74.0342 53.794 74.1796 54.184C74.4982 55.0398 74.9767 55.8359 75.5837 56.5182" stroke="#26211D" stroke-width="0.421992" stroke-miterlimit="10" stroke-linecap="round" stroke-linejoin="round"/>
<path d="M80.733 53.1605C80.3419 53.2408 80.0387 53.5777 79.9088 53.9554C79.7789 54.3331 79.7975 54.7461 79.8609 55.1404C80.1107 56.7002 81.012 58.0745 81.9862 59.3186" stroke="#26211D" stroke-width="0.421992" stroke-miterlimit="10" stroke-linecap="round" stroke-linejoin="round"/>
<path d="M87.89 48.2473C87.7194 48.4841 87.6974 48.8037 87.7708 49.086C87.8442 49.3684 88.0026 49.6205 88.1713 49.8589C88.8795 50.8606 89.8058 51.7072 90.8671 52.3226" stroke="#26211D" stroke-width="0.421992" stroke-miterlimit="10" stroke-linecap="round" stroke-linejoin="round"/>
<path d="M51.4973 41.3204C51.3945 40.4404 51.073 39.5869 50.5693 38.8579" stroke="#26211D" stroke-width="0.843984" stroke-miterlimit="10" stroke-linecap="round" stroke-linejoin="round"/>
<path d="M22.834 44.4681C24.1619 43.4847 25.6993 42.7863 27.3134 42.4328C28.1517 42.2491 29.0625 42.1658 29.8381 42.5321" stroke="#26211D" stroke-width="0.843984" stroke-miterlimit="10" stroke-linecap="round" stroke-linejoin="round"/>
<path d="M57.6815 41.4201C57.8277 40.7999 57.743 40.1278 57.4476 39.5632" stroke="#26211D" stroke-width="0.843984" stroke-miterlimit="10" stroke-linecap="round" stroke-linejoin="round"/>
<path d="M87.919 37.1638C88.0627 37.8602 88.6388 38.4044 89.2869 38.6967C89.9352 38.9893 90.6554 39.0705 91.3622 39.1484C91.6995 39.1856 92.0369 39.2227 92.3741 39.2596" stroke="#26211D" stroke-width="0.421992" stroke-miterlimit="10" stroke-linecap="round" stroke-linejoin="round"/>
<path d="M32.8312 43.7297C33.4191 43.1036 33.7227 42.2201 33.6434 41.3649" stroke="#26211D" stroke-width="0.421992" stroke-miterlimit="10" stroke-linecap="round" stroke-linejoin="round"/>
<path d="M34.2793 43.4816C34.5844 43.1105 34.7962 42.6632 34.8893 42.1917" stroke="#26211D" stroke-width="0.421992" stroke-miterlimit="10" stroke-linecap="round" stroke-linejoin="round"/>
<path d="M48.1208 41.5022C48.4184 41.0347 48.5877 40.4863 48.6052 39.9321" stroke="#26211D" stroke-width="0.421992" stroke-miterlimit="10" stroke-linecap="round" stroke-linejoin="round"/>
<path d="M64.7008 45.3767C65.536 45.1357 66.3228 44.7293 67.0029 44.1887" stroke="#26211D" stroke-width="0.421992" stroke-miterlimit="10" stroke-linecap="round" stroke-linejoin="round"/>
<path d="M65.5735 45.9645C65.9436 45.8761 66.3137 45.7877 66.6837 45.699" stroke="#26211D" stroke-width="0.421992" stroke-miterlimit="10" stroke-linecap="round" stroke-linejoin="round"/>
<path d="M82.345 40.3932C83.0606 39.5322 83.4913 38.4388 83.5557 37.3214" stroke="#26211D" stroke-width="0.421992" stroke-miterlimit="10" stroke-linecap="round" stroke-linejoin="round"/>
<path d="M83.7676 40.1265C84.0731 39.7335 84.2759 39.262 84.3512 38.7701" stroke="#26211D" stroke-width="0.421992" stroke-miterlimit="10" stroke-linecap="round" stroke-linejoin="round"/>
<path d="M77.715 44.2225C78.2869 44.1529 78.8354 43.9036 79.264 43.5184" stroke="#26211D" stroke-width="0.421992" stroke-miterlimit="10" stroke-linecap="round" stroke-linejoin="round"/>
<path d="M73.4583 42.3123C73.9669 41.8104 74.5339 41.3677 75.1441 40.9962" stroke="#26211D" stroke-width="0.421992" stroke-miterlimit="10" stroke-linecap="round" stroke-linejoin="round"/>
<path d="M74.5875 42.6434C74.789 42.5372 74.9904 42.4306 75.1919 42.3244" stroke="#26211D" stroke-width="0.421992" stroke-miterlimit="10" stroke-linecap="round" stroke-linejoin="round"/>
<path d="M65.4544 37.3124C65.5377 37.1247 65.6993 36.9731 65.8921 36.9027" stroke="#26211D" stroke-width="0.421992" stroke-miterlimit="10" stroke-linecap="round" stroke-linejoin="round"/>
<path d="M78.7406 52.6092C79.0957 52.1725 79.6061 51.8645 80.1582 51.7547" stroke="#26211D" stroke-width="0.421992" stroke-miterlimit="10" stroke-linecap="round" stroke-linejoin="round"/>
<path d="M86.3327 48.5282C86.5604 48.2741 86.7881 48.0203 87.0158 47.7662" stroke="#26211D" stroke-width="0.421992" stroke-miterlimit="10" stroke-linecap="round" stroke-linejoin="round"/>
<path d="M63.3806 50.1005C62.535 51.2917 62.2087 52.838 62.5004 54.2692" stroke="#26211D" stroke-width="0.421992" stroke-miterlimit="10" stroke-linecap="round" stroke-linejoin="round"/>
<path d="M62.4401 50.7213C62.0177 51.0742 61.7377 51.5926 61.6739 52.139" stroke="#26211D" stroke-width="0.421992" stroke-miterlimit="10" stroke-linecap="round" stroke-linejoin="round"/>
<path d="M55.0672 46.9372C54.3531 48.1426 53.8805 49.49 53.6845 50.8769" stroke="#26211D" stroke-width="0.421992" stroke-miterlimit="10" stroke-linecap="round" stroke-linejoin="round"/>
<path d="M54.9717 48.7234C54.7925 49.1479 54.6132 49.5721 54.4342 49.9965" stroke="#26211D" stroke-width="0.421992" stroke-miterlimit="10" stroke-linecap="round" stroke-linejoin="round"/>
<path d="M34.9346 46.1323C35.8992 46.0759 36.8292 45.5777 37.4109 44.8062" stroke="#26211D" stroke-width="0.421992" stroke-miterlimit="10" stroke-linecap="round" stroke-linejoin="round"/>
<path d="M36.1543 46.4898C36.9529 46.3736 37.7126 46.0063 38.2995 45.4523" stroke="#26211D" stroke-width="0.421992" stroke-miterlimit="10" stroke-linecap="round" stroke-linejoin="round"/>
<path d="M37.5214 46.8589C37.815 46.7486 38.1085 46.6383 38.402 46.5276" stroke="#26211D" stroke-width="0.421992" stroke-miterlimit="10" stroke-linecap="round" stroke-linejoin="round"/>
<path d="M42.9374 47.9091C43.0232 47.8836 43.1089 47.8582 43.1946 47.8327" stroke="#26211D" stroke-width="0.421992" stroke-miterlimit="10" stroke-linecap="round" stroke-linejoin="round"/>
<path d="M46.0857 48.6068C46.2872 48.5009 46.4891 48.3946 46.6906 48.2886" stroke="#26211D" stroke-width="0.421992" stroke-miterlimit="10" stroke-linecap="round" stroke-linejoin="round"/>
<path d="M101.155 47.484C100.941 47.2493 100.803 47.0467 100.739 46.876C100.675 46.7267 100.664 46.5347 100.707 46.3C100.771 46.0867 100.856 45.7773 100.963 45.372C101.133 44.6893 101.315 44.124 101.507 43.676C101.72 43.2067 101.923 42.7267 102.115 42.236C102.328 41.724 102.509 41.0733 102.659 40.284C103 39.4947 103.299 38.748 103.555 38.044C103.832 37.34 104.045 36.764 104.195 36.316C104.344 35.868 104.419 35.644 104.419 35.644C104.44 35.5587 104.536 35.3347 104.707 34.972C104.877 34.6093 105.091 34.172 105.347 33.66C105.624 33.1267 105.88 32.5933 106.115 32.06C106.477 31.036 106.765 30.1613 106.979 29.436C107.213 28.6893 107.448 28.0173 107.683 27.42C107.917 26.8227 108.227 26.236 108.611 25.66C108.867 25.212 109.165 24.924 109.507 24.796C109.848 24.668 110.168 24.6787 110.467 24.828C110.787 24.956 111.011 25.2333 111.139 25.66C111.245 25.8733 111.331 26.1293 111.395 26.428C111.48 26.7267 111.555 27.164 111.619 27.74C111.683 28.2947 111.725 29.084 111.747 30.108C111.789 31.324 111.8 32.5293 111.779 33.724C111.757 34.8973 111.757 35.9853 111.779 36.988C111.821 37.9907 111.939 38.844 112.131 39.548C112.195 39.932 112.28 40.4013 112.387 40.956C112.515 41.4893 112.643 42.0227 112.771 42.556C112.92 43.0893 113.059 43.5373 113.187 43.9C113.336 44.2627 113.453 44.444 113.539 44.444C113.645 44.444 113.784 44.3053 113.955 44.028C114.147 43.7507 114.381 43.2493 114.659 42.524C114.957 41.7987 115.309 40.7747 115.715 39.452C116.12 38.108 116.579 36.3907 117.091 34.3C117.197 33.9373 117.336 33.3507 117.507 32.54C117.699 31.7293 117.837 30.908 117.923 30.076C118.072 29.5427 118.221 28.956 118.371 28.316C118.52 27.676 118.648 27.1107 118.755 26.62C118.883 26.1293 118.947 25.852 118.947 25.788C118.947 25.6387 118.947 25.5107 118.947 25.404C118.968 25.2973 118.968 25.1907 118.947 25.084C119.053 25.084 119.149 24.9453 119.235 24.668C119.32 24.3693 119.363 24.1133 119.363 23.9C119.363 23.5373 119.405 23.2493 119.491 23.036C119.597 22.8013 119.704 22.6307 119.811 22.524C119.875 22.3533 120.035 22.2787 120.291 22.3C120.547 22.3 120.803 22.364 121.059 22.492C121.315 22.62 121.475 22.7907 121.539 23.004C121.581 23.2387 121.517 23.772 121.347 24.604C121.197 25.4147 120.963 26.5133 120.643 27.9C120.643 28.1347 120.579 28.5187 120.451 29.052C120.323 29.5853 120.184 30.1507 120.035 30.748C119.907 31.3453 119.811 31.8573 119.747 32.284C119.661 32.8387 119.565 33.3613 119.459 33.852C119.352 34.3213 119.245 34.5453 119.139 34.524C118.584 36.9347 117.997 38.9933 117.379 40.7C116.781 42.3853 116.248 43.7613 115.779 44.828C115.267 46.0013 114.701 46.7053 114.083 46.94C113.485 47.196 112.845 46.8867 112.163 46.012C111.757 45.4573 111.437 44.9133 111.203 44.38C110.968 43.8253 110.776 43.1853 110.627 42.46C110.477 41.7133 110.296 40.796 110.083 39.708C109.763 38.8333 109.581 37.948 109.539 37.052C109.517 36.156 109.549 35.2387 109.635 34.3C109.72 33.34 109.784 32.348 109.827 31.324C109.805 30.3 109.763 29.6173 109.699 29.276C109.635 28.9347 109.507 28.956 109.315 29.34C109.144 29.7027 108.856 30.4493 108.451 31.58C108.301 31.9853 108.099 32.476 107.843 33.052C107.608 33.628 107.373 34.204 107.139 34.78C106.904 35.3347 106.701 35.8253 106.531 36.252C106.36 36.6573 106.253 36.9133 106.211 37.02C106.083 37.276 105.933 37.6173 105.763 38.044C105.592 38.4493 105.453 38.8867 105.347 39.356C104.579 41.3613 104.003 42.9613 103.619 44.156C103.256 45.3507 102.989 46.1827 102.819 46.652C102.605 47.2493 102.381 47.644 102.147 47.836C101.912 48.0493 101.581 47.932 101.155 47.484ZM122.615 45.02C122.338 45.02 122.114 44.9667 121.943 44.86C121.794 44.7533 121.602 44.604 121.367 44.412C120.962 43.9853 120.674 43.58 120.503 43.196C120.332 42.7907 120.279 42.4067 120.343 42.044C120.407 41.8733 120.428 41.7133 120.407 41.564C120.407 41.3933 120.407 41.308 120.407 41.308C120.3 41.2013 120.268 41.1373 120.311 41.116C120.354 41.0733 120.396 41.0093 120.439 40.924C120.567 40.924 120.61 40.8067 120.567 40.572C120.524 40.4013 120.61 40.028 120.823 39.452C121.036 38.876 121.303 38.332 121.623 37.82C121.751 37.6067 121.943 37.3293 122.199 36.988C122.455 36.6253 122.732 36.2733 123.031 35.932C123.351 35.5693 123.639 35.2813 123.895 35.068C124.428 34.62 124.898 34.2893 125.303 34.076C125.708 33.8627 126.146 33.7027 126.615 33.596C127.084 33.4893 127.404 33.436 127.575 33.436C127.767 33.436 128.023 33.6067 128.343 33.948C128.834 34.1613 129.186 34.4173 129.399 34.716C129.634 35.0147 129.783 35.452 129.847 36.028C129.911 36.668 129.858 37.404 129.687 38.236C129.538 39.0467 129.036 40.06 128.183 41.276C127.65 42.044 127.159 42.62 126.711 43.004C126.263 43.3667 125.73 43.7293 125.111 44.092C124.663 44.3907 124.258 44.6147 123.895 44.764C123.532 44.892 123.106 44.9773 122.615 45.02ZM125.687 41.628C126.199 41.052 126.604 40.508 126.903 39.996C127.223 39.484 127.522 38.8333 127.799 38.044C127.884 37.8093 127.938 37.5213 127.959 37.18C127.98 36.8173 127.97 36.4867 127.927 36.188C127.906 35.868 127.831 35.6867 127.703 35.644C127.447 35.4947 127.138 35.452 126.775 35.516C126.412 35.5587 126.018 35.7613 125.591 36.124C124.93 36.6787 124.354 37.372 123.863 38.204C123.372 39.0147 122.892 39.9427 122.423 40.988C122.103 41.756 122.028 42.3747 122.199 42.844C122.391 43.292 122.786 43.452 123.383 43.324C124.002 43.1747 124.77 42.6093 125.687 41.628ZM133.64 45.628C133.235 45.4573 132.851 45.2333 132.488 44.956C132.125 44.6573 131.891 44.412 131.784 44.22C131.784 44.028 131.816 43.9 131.88 43.836C131.944 43.7507 132.125 43.7187 132.424 43.74C132.744 43.74 133.256 43.7827 133.96 43.868C134.216 43.868 134.536 43.8467 134.92 43.804C135.304 43.7613 135.656 43.6973 135.976 43.612C136.317 43.5267 136.509 43.42 136.552 43.292C136.659 43.292 136.68 43.26 136.616 43.196C136.552 43.1107 136.477 43.0253 136.392 42.94C136.307 42.94 136.211 42.908 136.104 42.844C135.997 42.7587 135.901 42.716 135.816 42.716C135.816 42.6093 135.709 42.492 135.496 42.364C135.304 42.2147 135.101 42.0973 134.888 42.012C134.419 41.628 134.013 41.2867 133.672 40.988C133.331 40.668 133.203 40.4547 133.288 40.348C133.288 40.2627 133.288 40.22 133.288 40.22C133.288 40.1987 133.288 40.188 133.288 40.188C133.139 40.188 132.968 39.9747 132.776 39.548C132.605 39.1213 132.52 38.7373 132.52 38.396C132.52 38.14 132.595 37.82 132.744 37.436C132.893 37.0307 133.096 36.6147 133.352 36.188C133.608 35.7613 133.875 35.4093 134.152 35.132C134.536 34.7693 135.016 34.3853 135.592 33.98C136.168 33.5533 136.733 33.18 137.288 32.86C137.864 32.5187 138.344 32.2947 138.728 32.188C139.112 32.0387 139.464 31.964 139.784 31.964C140.125 31.964 140.424 32.0387 140.68 32.188C140.893 32.2947 141.085 32.4547 141.256 32.668C141.448 32.86 141.608 33.0627 141.736 33.276C141.885 33.468 141.981 33.6387 142.024 33.788C142.024 34.044 142.003 34.332 141.96 34.652C141.917 34.9507 141.853 35.2173 141.768 35.452C141.704 35.6867 141.597 35.804 141.448 35.804C141.448 35.804 141.416 35.8147 141.352 35.836C141.309 35.836 141.288 35.8893 141.288 35.996C141.288 36.2093 141.128 36.4547 140.808 36.732C140.403 37.0093 140.051 37.18 139.752 37.244C139.453 37.2867 139.272 37.1693 139.208 36.892C139.144 36.8067 139.101 36.732 139.08 36.668C139.059 36.604 139.005 36.572 138.92 36.572C138.92 36.572 138.888 36.54 138.824 36.476C138.76 36.412 138.728 36.3053 138.728 36.156C138.728 36.0707 138.76 35.996 138.824 35.932C138.888 35.8467 138.92 35.804 138.92 35.804C139.027 35.804 139.165 35.6867 139.336 35.452C139.507 35.196 139.656 34.9293 139.784 34.652C139.933 34.3533 140.008 34.1507 140.008 34.044C140.008 33.916 139.987 33.8413 139.944 33.82C139.923 33.7987 139.827 33.788 139.656 33.788C139.357 33.916 138.995 34.0867 138.568 34.3C138.141 34.5133 137.736 34.7267 137.352 34.94C136.989 35.132 136.723 35.3133 136.552 35.484C136.467 35.6333 136.413 35.7293 136.392 35.772C136.371 35.7933 136.317 35.804 136.232 35.804C136.232 35.7187 136.157 35.7613 136.008 35.932C135.88 36.0813 135.709 36.2947 135.496 36.572C135.304 36.8493 135.112 37.1267 134.92 37.404C134.749 37.66 134.621 37.852 134.536 37.98C134.493 38.0227 134.44 38.1507 134.376 38.364C134.333 38.556 134.312 38.7373 134.312 38.908C134.227 39.164 134.237 39.3453 134.344 39.452C134.451 39.5373 134.685 39.7293 135.048 40.028C135.795 40.5827 136.381 41.0413 136.808 41.404C137.235 41.7667 137.555 42.0653 137.768 42.3C137.981 42.5347 138.109 42.748 138.152 42.94C138.536 43.58 138.653 44.0707 138.504 44.412C138.355 44.7533 137.992 45.052 137.416 45.308C137.203 45.4147 136.851 45.5 136.36 45.564C135.869 45.628 135.368 45.66 134.856 45.66C134.344 45.6813 133.939 45.6707 133.64 45.628ZM146.594 45.436C146.296 45.3507 146.05 45.2547 145.858 45.148C145.666 45.02 145.41 44.8173 145.09 44.54C144.834 44.1987 144.632 43.8787 144.482 43.58C144.354 43.2813 144.269 42.94 144.226 42.556C144.184 42.1507 144.162 41.6387 144.162 41.02C144.162 40.764 144.205 40.38 144.29 39.868C144.397 39.356 144.514 38.8227 144.642 38.268C144.792 37.692 144.92 37.18 145.026 36.732C145.154 36.284 145.229 35.996 145.25 35.868C145.314 35.5907 145.208 35.4307 144.93 35.388C144.653 35.3453 144.344 35.3347 144.002 35.356C143.682 35.356 143.469 35.324 143.362 35.26C143.277 35.2387 143.234 35.2067 143.234 35.164C143.234 35.1 143.234 35.068 143.234 35.068C143.234 34.9827 143.224 34.9293 143.202 34.908C143.202 34.8653 143.17 34.7907 143.106 34.684C143.064 34.5987 143.085 34.4813 143.17 34.332C143.277 34.1613 143.448 34.0547 143.682 34.012C143.874 33.9693 144.13 33.9373 144.45 33.916C144.792 33.8733 145.133 33.7987 145.474 33.692C145.816 33.564 146.093 33.372 146.306 33.116C146.498 32.6467 146.722 32.124 146.978 31.548C147.234 30.972 147.48 30.46 147.714 30.012C147.97 29.5427 148.141 29.2547 148.226 29.148C148.589 28.956 148.856 28.8813 149.026 28.924C149.197 28.9453 149.389 29.1267 149.602 29.468C149.709 29.6173 149.784 29.7347 149.826 29.82C149.89 29.9053 149.901 30.0333 149.858 30.204C149.816 30.3747 149.698 30.6413 149.506 31.004C149.336 31.3667 149.069 31.8893 148.706 32.572C148.6 32.7853 148.504 32.9773 148.418 33.148C148.333 33.2973 148.29 33.372 148.29 33.372C148.376 33.3933 148.504 33.404 148.674 33.404C148.845 33.404 149.058 33.3933 149.314 33.372C149.549 33.3293 149.848 33.2973 150.21 33.276C150.573 33.2333 150.861 33.2333 151.074 33.276C151.565 33.276 151.928 33.372 152.162 33.564C152.397 33.7347 152.525 34.0333 152.546 34.46C152.589 34.6947 152.536 34.8333 152.386 34.876C152.258 34.9187 151.906 34.94 151.33 34.94C151.138 34.94 150.84 34.9507 150.434 34.972C150.029 34.9933 149.602 35.0147 149.154 35.036C148.728 35.0573 148.354 35.0893 148.034 35.132C147.736 35.1533 147.586 35.1853 147.586 35.228C147.522 35.2707 147.416 35.4733 147.266 35.836C147.138 36.1987 147 36.6147 146.85 37.084C146.722 37.532 146.605 37.9373 146.498 38.3C146.349 39.0253 146.232 39.7507 146.146 40.476C146.082 41.2013 146.072 41.8307 146.114 42.364C146.157 42.8973 146.274 43.2707 146.466 43.484C146.658 43.676 147.032 43.7187 147.586 43.612C148.141 43.484 148.589 43.2813 148.93 43.004C149.314 42.684 149.624 42.524 149.858 42.524C150.114 42.524 150.253 42.6413 150.274 42.876C150.317 43.0893 150.2 43.3987 149.922 43.804C149.666 44.188 149.346 44.5293 148.962 44.828C148.578 45.1053 148.173 45.308 147.746 45.436C147.341 45.5427 146.957 45.5427 146.594 45.436ZM154.788 44.764C154.681 44.9773 154.521 45.0413 154.308 44.956C154.116 44.8707 153.956 44.7853 153.828 44.7C153.679 44.7 153.551 44.6573 153.444 44.572C153.337 44.4867 153.263 44.3587 153.22 44.188C153.177 44.06 153.167 43.9107 153.188 43.74C153.209 43.548 153.252 43.3347 153.316 43.1C153.401 42.844 153.487 42.5667 153.572 42.268C153.743 41.564 153.86 41.052 153.924 40.732C153.988 40.412 154.052 40.1347 154.116 39.9C154.18 39.6653 154.265 39.324 154.372 38.876C154.543 38.4493 154.681 38.0333 154.788 37.628C154.895 37.2227 155.055 36.8173 155.268 36.412C155.417 35.8573 155.599 35.3347 155.812 34.844C156.047 34.332 156.271 33.9053 156.484 33.564C156.527 33.5 156.601 33.4147 156.708 33.308C156.836 33.2013 156.943 33.148 157.028 33.148C157.199 32.9773 157.348 32.9133 157.476 32.956C157.625 32.9773 157.807 33.0733 158.02 33.244C158.276 33.5213 158.372 33.8413 158.308 34.204C158.265 34.5667 158.009 35.1 157.54 35.804C157.284 36.4653 157.049 37.0413 156.836 37.532C156.623 38.0013 156.473 38.4493 156.388 38.876C156.623 38.5347 156.879 38.2253 157.156 37.948C157.455 37.6493 157.7 37.404 157.892 37.212C158.361 36.7427 158.745 36.4013 159.044 36.188C159.364 35.9747 159.737 35.7293 160.164 35.452C160.42 35.2813 160.665 35.132 160.9 35.004C161.135 34.8547 161.391 34.748 161.668 34.684C161.967 34.62 162.287 34.62 162.628 34.684C162.841 34.6627 163.012 34.7267 163.14 34.876C163.289 35.0253 163.407 35.228 163.492 35.484C163.577 35.74 163.631 36.0387 163.652 36.38C163.161 36.2733 162.724 36.2947 162.34 36.444C161.956 36.572 161.625 36.732 161.348 36.924C161.092 37.116 160.889 37.2653 160.74 37.372C160.42 37.5853 160.015 37.8733 159.524 38.236C159.033 38.5773 158.543 38.9933 158.052 39.484C157.668 39.9107 157.337 40.2733 157.06 40.572C156.804 40.8707 156.591 41.1373 156.42 41.372C156.271 41.6067 156.153 41.852 156.068 42.108C155.855 42.5987 155.631 43.132 155.396 43.708C155.161 44.284 154.959 44.636 154.788 44.764ZM167.439 44.572C167.269 44.6147 167.045 44.636 166.767 44.636C166.49 44.6147 166.245 44.5827 166.031 44.54C165.839 44.476 165.743 44.412 165.743 44.348C165.743 44.2413 165.69 44.188 165.583 44.188C165.583 44.188 165.53 44.1453 165.423 44.06C165.338 43.9747 165.199 43.8893 165.007 43.804C164.815 43.5053 164.719 43.1853 164.719 42.844C164.719 42.4813 164.815 41.916 165.007 41.148C165.071 40.6147 165.274 39.996 165.615 39.292C165.978 38.5667 166.415 37.8307 166.927 37.084C167.439 36.3373 167.973 35.6653 168.527 35.068C169.103 34.4707 169.626 34.0333 170.095 33.756C170.394 33.4573 170.757 33.2973 171.183 33.276C171.61 33.2547 172.015 33.3507 172.399 33.564C172.613 33.6707 172.826 33.8413 173.039 34.076C173.253 34.3107 173.455 34.5667 173.647 34.844C173.839 35.1213 173.999 35.3987 174.127 35.676C174.191 35.9107 174.223 36.124 174.223 36.316C174.245 36.4867 174.245 36.7 174.223 36.956C174.223 37.212 174.191 37.596 174.127 38.108C174.021 38.492 173.925 38.9613 173.839 39.516C173.775 40.0707 173.743 40.5507 173.743 40.956C173.701 41.3613 173.743 41.6493 173.871 41.82C174.021 41.9907 174.234 42.0013 174.511 41.852C174.767 41.724 175.013 41.6707 175.247 41.692C175.482 41.692 175.663 41.756 175.791 41.884C175.941 42.012 176.015 42.204 176.015 42.46C176.015 42.716 175.887 42.9827 175.631 43.26C175.397 43.516 175.098 43.74 174.735 43.932C174.394 44.1027 174.063 44.188 173.743 44.188C173.509 44.188 173.285 44.0493 173.071 43.772C172.858 43.4733 172.666 43.1213 172.495 42.716C172.346 42.2893 172.207 41.884 172.079 41.5L171.887 40.764L170.511 42.076C170.234 42.3747 169.957 42.652 169.679 42.908C169.423 43.1427 169.263 43.3133 169.199 43.42C169.093 43.612 168.89 43.804 168.591 43.996C168.314 44.188 167.93 44.38 167.439 44.572ZM167.535 42.684C167.898 42.4707 168.314 42.1613 168.783 41.756C169.253 41.3293 169.711 40.8707 170.159 40.38C170.607 39.868 170.981 39.3987 171.279 38.972C171.642 38.4813 171.919 38.0227 172.111 37.596C172.303 37.1693 172.442 36.764 172.527 36.38C172.442 36.1453 172.303 35.9 172.111 35.644C171.919 35.3667 171.749 35.2173 171.599 35.196C171.13 35.196 170.629 35.4947 170.095 36.092C169.583 36.668 169.082 37.2973 168.591 37.98C168.506 38.0867 168.389 38.2573 168.239 38.492C168.09 38.7267 167.941 38.9507 167.791 39.164C167.663 39.356 167.578 39.484 167.535 39.548C167.471 39.6333 167.343 39.8787 167.151 40.284C166.981 40.668 166.81 41.0627 166.639 41.468C166.469 41.852 166.383 42.108 166.383 42.236C166.383 42.364 166.394 42.5027 166.415 42.652C166.458 42.8013 166.565 42.8973 166.735 42.94C166.906 42.9827 167.173 42.8973 167.535 42.684ZM112.049 73.668C111.964 73.668 111.857 73.668 111.729 73.668C111.601 73.6893 111.484 73.604 111.377 73.412C111.292 73.3053 111.239 73.1453 111.217 72.932C111.217 72.7187 111.271 72.3347 111.377 71.78C111.484 71.4173 111.569 71.0547 111.633 70.692C111.697 70.3507 111.729 70.0947 111.729 69.924C111.729 69.8387 111.751 69.668 111.793 69.412C111.857 69.1773 111.889 69.0067 111.889 68.9C111.996 68.7293 112.081 68.4947 112.145 68.196C112.209 67.8973 112.241 67.6307 112.241 67.396C112.241 67.14 112.369 66.9053 112.625 66.692C112.625 66.5213 112.657 66.308 112.721 66.052C112.807 65.796 112.849 65.6253 112.849 65.54C112.913 65.2413 113.052 64.7187 113.265 63.972C113.5 63.204 113.777 62.34 114.097 61.38C114.439 60.42 114.769 59.4813 115.089 58.564C115.409 57.6467 115.697 56.868 115.953 56.228C116.209 55.6307 116.38 55.1187 116.465 54.692C116.572 54.244 116.625 53.9133 116.625 53.7C116.625 53.6147 116.647 53.5507 116.689 53.508C116.732 53.444 116.828 53.3267 116.977 53.156C117.191 52.9427 117.372 52.8787 117.521 52.964C117.692 53.0493 117.895 53.1773 118.129 53.348C118.3 53.6253 118.417 53.86 118.481 54.052C118.567 54.244 118.567 54.5747 118.481 55.044C118.481 55.364 118.428 55.6413 118.321 55.876C118.215 56.1107 118.119 56.292 118.033 56.42C117.948 56.5267 117.927 56.5693 117.969 56.548C118.844 56.1427 119.612 55.9293 120.273 55.908C120.956 55.8653 121.521 55.9827 121.969 56.26C122.439 56.516 122.791 56.8787 123.025 57.348C123.26 57.8173 123.377 58.3613 123.377 58.98C123.377 59.236 123.324 59.5453 123.217 59.908C123.111 60.2493 122.972 60.5693 122.801 60.868C122.652 61.1453 122.513 61.348 122.385 61.476C122.3 61.476 122.215 61.5507 122.129 61.7C122.044 61.828 121.959 61.9773 121.873 62.148C121.703 62.3613 121.425 62.6067 121.041 62.884C120.679 63.14 120.316 63.3533 119.953 63.524C119.591 63.6733 119.324 63.716 119.153 63.652C119.153 63.652 119.121 63.6627 119.057 63.684C119.015 63.684 118.993 63.7373 118.993 63.844C118.993 63.8867 118.823 63.9827 118.481 64.132C118.14 64.26 117.745 64.388 117.297 64.516C116.849 64.6227 116.455 64.676 116.113 64.676C115.665 64.676 115.345 64.5907 115.153 64.42C115.111 64.4627 115.057 64.5267 114.993 64.612C114.951 64.6973 114.929 64.772 114.929 64.836C114.929 64.964 114.876 65.2093 114.769 65.572C114.684 65.9133 114.577 66.244 114.449 66.564C114.321 66.884 114.204 67.044 114.097 67.044C114.097 67.044 114.076 67.076 114.033 67.14C113.991 67.204 114.012 67.2893 114.097 67.396C114.097 67.396 114.087 67.5133 114.065 67.748C114.065 68.004 114.012 68.2173 113.905 68.388C113.905 68.5587 113.873 68.8147 113.809 69.156C113.745 69.4973 113.671 69.7533 113.585 69.924C113.585 70.18 113.543 70.4253 113.457 70.66C113.393 70.916 113.319 71.044 113.233 71.044C113.148 71.0653 113.095 71.1933 113.073 71.428C113.052 71.684 113.041 71.8653 113.041 71.972C113.02 72.5053 112.913 72.9213 112.721 73.22C112.529 73.5187 112.305 73.668 112.049 73.668ZM115.921 62.98C116.092 62.98 116.444 62.9053 116.977 62.756C117.511 62.6067 118.055 62.4253 118.609 62.212C119.185 61.9773 119.612 61.7427 119.889 61.508C120.444 61.0173 120.871 60.4627 121.169 59.844C121.489 59.204 121.468 58.596 121.105 58.02C120.935 57.7213 120.625 57.604 120.177 57.668C119.729 57.7107 119.239 57.8813 118.705 58.18C118.172 58.4787 117.671 58.852 117.201 59.3C116.945 59.5773 116.711 59.9187 116.497 60.324C116.284 60.7293 116.103 61.1347 115.953 61.54C115.825 61.9453 115.751 62.2867 115.729 62.564C115.708 62.8413 115.772 62.98 115.921 62.98ZM125.999 64.932C125.914 64.932 125.807 64.9107 125.679 64.868C125.573 64.804 125.519 64.772 125.519 64.772C125.519 64.6867 125.487 64.58 125.423 64.452C125.381 64.324 125.359 64.2173 125.359 64.132C125.21 64.0467 125.125 63.9613 125.103 63.876C125.082 63.7693 125.114 63.5987 125.199 63.364C125.327 63.1507 125.498 62.8093 125.711 62.34C125.925 61.8493 126.149 61.3267 126.383 60.772C126.618 60.196 126.842 59.6307 127.055 59.076C127.269 58.5213 127.45 58.052 127.599 57.668C127.749 57.2627 127.834 57.0173 127.855 56.932C127.855 56.8467 127.887 56.74 127.951 56.612C128.015 56.484 128.09 56.3773 128.175 56.292C128.346 56.1427 128.527 56.132 128.719 56.26C128.911 56.3667 129.071 56.5587 129.199 56.836C129.349 57.092 129.423 57.38 129.423 57.7C129.423 57.8493 129.317 58.2333 129.103 58.852C128.89 59.4493 128.602 60.164 128.239 60.996C127.898 61.828 127.514 62.6707 127.087 63.524C126.767 64.1427 126.565 64.5373 126.479 64.708C126.394 64.8573 126.234 64.932 125.999 64.932ZM130.703 52.804C130.447 52.804 130.17 52.708 129.871 52.516C129.594 52.3027 129.349 52.0467 129.135 51.748C128.943 51.428 128.847 51.108 128.847 50.788C128.847 50.6813 128.911 50.532 129.039 50.34C129.167 50.148 129.295 49.956 129.423 49.764C129.551 49.572 129.615 49.4547 129.615 49.412C129.786 49.412 129.914 49.4227 129.999 49.444C130.106 49.444 130.234 49.4867 130.383 49.572C130.618 50.1053 130.906 50.5427 131.247 50.884C131.61 51.2253 131.791 51.5133 131.791 51.748C131.791 52.2173 131.749 52.516 131.663 52.644C131.578 52.7507 131.258 52.804 130.703 52.804ZM132.288 65.668C131.904 65.3907 131.584 65.092 131.328 64.772C131.072 64.4307 130.923 63.9827 130.88 63.428C130.816 63.0653 130.944 62.6067 131.264 62.052C131.605 61.476 132.085 60.8787 132.704 60.26C133.323 59.62 134.005 59.0227 134.752 58.468C135.648 57.892 136.288 57.4653 136.672 57.188C137.056 56.9107 137.28 56.708 137.344 56.58C137.429 56.452 137.429 56.3347 137.344 56.228C137.28 56.1427 137.12 56.1 136.864 56.1C136.629 56.0787 136.309 56.0467 135.904 56.004C135.648 56.0253 135.413 56.036 135.2 56.036C134.987 56.036 134.731 56.0467 134.432 56.068C134.155 56.0893 133.76 56.1533 133.248 56.26C132.864 56.2813 132.597 56.2813 132.448 56.26C132.32 56.2173 132.181 56.1213 132.032 55.972C131.925 55.78 131.829 55.6093 131.744 55.46C131.68 55.3107 131.701 55.204 131.808 55.14C131.851 54.9053 131.979 54.7453 132.192 54.66C132.427 54.5747 132.939 54.4893 133.728 54.404C133.899 54.4253 134.229 54.436 134.72 54.436C135.232 54.436 135.797 54.4787 136.416 54.564C137.312 54.6707 137.984 54.7773 138.432 54.884C138.88 54.9693 139.189 55.0867 139.36 55.236C139.552 55.3853 139.68 55.5987 139.744 55.876C139.872 56.196 139.904 56.4733 139.84 56.708C139.797 56.9427 139.584 57.2093 139.2 57.508C138.837 57.8067 138.229 58.2227 137.376 58.756C136.8 59.1613 136.256 59.5773 135.744 60.004C135.253 60.4093 134.816 60.804 134.432 61.188C134.048 61.572 133.707 61.9347 133.408 62.276C132.939 62.852 132.651 63.2253 132.544 63.396C132.459 63.5667 132.576 63.7053 132.896 63.812C132.981 63.8973 133.131 63.9507 133.344 63.972C133.557 63.972 133.771 63.9613 133.984 63.94C134.155 63.94 134.411 63.94 134.752 63.94C135.093 63.9187 135.296 63.9293 135.36 63.972C135.531 64.0573 135.755 64.0573 136.032 63.972C136.331 63.8867 136.64 63.8013 136.96 63.716C137.088 63.6947 137.291 63.6733 137.568 63.652C137.845 63.6307 138.123 63.6093 138.4 63.588C138.677 63.5453 138.88 63.5027 139.008 63.46C139.243 63.3747 139.52 63.332 139.84 63.332C140.181 63.3107 140.395 63.3 140.48 63.3C140.608 63.4067 140.661 63.556 140.64 63.748C140.619 63.94 140.512 64.132 140.32 64.324C140.128 64.516 139.84 64.6547 139.456 64.74C138.837 64.9533 138.411 65.1027 138.176 65.188C137.963 65.252 137.771 65.2733 137.6 65.252C137.195 65.3587 136.736 65.444 136.224 65.508C135.712 65.5507 135.2 65.5827 134.688 65.604C134.176 65.6253 133.707 65.6467 133.28 65.668C132.853 65.668 132.523 65.668 132.288 65.668ZM141.998 65.764C141.55 65.572 141.251 65.3373 141.102 65.06C140.952 64.7613 140.984 64.3667 141.198 63.876C141.432 63.364 141.891 62.7133 142.574 61.924C143.278 61.1133 144.248 60.0893 145.486 58.852C146.147 58.1907 146.67 57.572 147.054 56.996C147.438 56.3987 147.63 56.036 147.63 55.908C146.627 55.8867 145.571 55.9187 144.462 56.004C143.672 56.068 143.118 56.0467 142.798 55.94C142.478 55.8333 142.286 55.6307 142.222 55.332C142.051 55.076 142.03 54.852 142.158 54.66C142.307 54.468 142.51 54.3187 142.766 54.212C143.043 54.1053 143.278 54.052 143.47 54.052C143.555 53.988 143.8 53.956 144.206 53.956C144.632 53.956 145.123 53.9773 145.678 54.02C146.232 54.0413 146.744 54.084 147.214 54.148C147.683 54.1907 148.003 54.244 148.174 54.308C148.43 54.372 148.696 54.4893 148.974 54.66C149.251 54.8093 149.475 55.0013 149.646 55.236C149.838 55.4707 149.934 55.7373 149.934 56.036C149.934 56.2707 149.784 56.6013 149.486 57.028C149.187 57.4333 148.92 57.7533 148.686 57.988C148.131 58.5853 147.544 59.204 146.926 59.844C146.328 60.484 145.742 61.1133 145.166 61.732C144.824 62.0947 144.462 62.4787 144.078 62.884C143.694 63.268 143.48 63.6093 143.438 63.908C143.502 64.0147 143.64 64.0787 143.854 64.1C144.088 64.1213 144.451 64.1 144.942 64.036C145.432 63.9507 146.115 63.844 146.99 63.716C147.8 63.4387 148.451 63.3213 148.942 63.364C149.432 63.4067 149.699 63.5667 149.742 63.844C149.72 63.9507 149.635 64.1107 149.486 64.324C149.336 64.516 149.187 64.6867 149.038 64.836C148.888 64.9853 148.782 65.06 148.718 65.06C148.718 65.06 148.59 65.092 148.334 65.156C148.078 65.22 147.768 65.2947 147.406 65.38C147.064 65.4653 146.723 65.5507 146.382 65.636C145.464 65.8707 144.75 66.0307 144.238 66.116C143.726 66.2013 143.31 66.212 142.99 66.148C142.691 66.084 142.36 65.956 141.998 65.764ZM151.771 65.348C151.686 65.1773 151.579 65.0493 151.451 64.964C151.323 64.8573 151.259 64.7613 151.259 64.676C151.259 64.5907 151.249 64.5053 151.227 64.42C151.227 64.3133 151.185 64.2173 151.099 64.132C150.993 64.004 151.003 63.716 151.131 63.268C151.259 62.7987 151.473 62.2333 151.771 61.572C152.07 60.8893 152.422 60.1747 152.827 59.428C152.998 59.2573 153.169 59.0333 153.339 58.756C153.51 58.4787 153.638 58.2973 153.723 58.212C153.723 58.1267 153.755 58.052 153.819 57.988C153.883 57.9027 153.958 57.86 154.043 57.86V57.668C154.043 57.5613 154.139 57.38 154.331 57.124C154.545 56.868 154.801 56.5907 155.099 56.292C155.398 55.972 155.707 55.6733 156.027 55.396C156.347 55.0973 156.614 54.884 156.827 54.756C157.275 54.4573 157.734 54.276 158.203 54.212C158.694 54.148 159.11 54.2547 159.451 54.532C159.515 54.596 159.622 54.7027 159.771 54.852C159.921 55.0013 160.091 55.172 160.283 55.364C160.497 55.5347 160.71 55.716 160.923 55.908L162.107 56.964L161.531 58.564C161.254 59.4173 161.179 60.164 161.307 60.804C161.457 61.444 161.67 61.9987 161.947 62.468C162.054 62.7027 162.267 62.9267 162.587 63.14C162.929 63.3533 163.249 63.4813 163.547 63.524C163.718 63.5453 163.878 63.6093 164.027 63.716C164.177 63.8227 164.251 63.9933 164.251 64.228C164.251 64.4413 164.209 64.612 164.123 64.74C164.038 64.868 163.889 64.9533 163.675 64.996C162.971 65.0813 162.31 64.9107 161.691 64.484C161.094 64.0573 160.539 63.3533 160.027 62.372C159.942 62.244 159.825 62.0093 159.675 61.668C159.547 61.3053 159.473 61.0707 159.451 60.964C159.366 61.0707 159.206 61.2733 158.971 61.572C158.737 61.8493 158.555 62.052 158.427 62.18C156.913 63.716 155.601 64.7507 154.491 65.284C153.403 65.796 152.497 65.8173 151.771 65.348ZM152.923 63.556C152.923 63.7053 153.147 63.7053 153.595 63.556C154.065 63.3853 154.566 63.0867 155.099 62.66C155.825 62.0413 156.55 61.3587 157.275 60.612C158.022 59.8653 158.619 59.172 159.067 58.532L159.771 57.38C159.558 56.8893 159.323 56.5587 159.067 56.388C158.833 56.196 158.63 56.1 158.459 56.1C158.182 56.1 157.766 56.356 157.211 56.868C156.678 57.38 156.102 58.0627 155.483 58.916C154.865 59.7693 154.278 60.708 153.723 61.732C153.51 62.1587 153.318 62.5747 153.147 62.98C152.998 63.364 152.923 63.556 152.923 63.556Z" fill="#422F2F"/>
<path d="M255.94 30.4423C253.74 31.3383 251.54 32.234 249.34 33.1299C247.122 34.0329 244.886 34.9415 242.532 35.3826C238.039 36.2246 233.423 35.3171 228.942 34.4119C226.467 33.9116 223.992 33.4119 221.516 32.9116C220.129 32.6312 218.737 32.3506 217.325 32.2576C215.23 32.12 213.133 32.3988 211.037 32.525C206.203 32.8161 201.352 32.2946 196.512 32.4759C191.673 32.6572 186.673 33.625 182.79 36.5203C183.908 38.4628 186.358 39.2465 188.599 39.237C190.84 39.2275 193.035 38.5995 195.272 38.4674C197.673 38.3255 200.066 38.7565 202.433 39.1857C204.476 39.5564 206.655 39.8372 208.698 40.2079" stroke="#26211D" stroke-width="0.843984" stroke-miterlimit="10" stroke-linecap="round" stroke-linejoin="round"/>
<path d="M215.189 38.6497C210.898 39.8583 206.513 40.7321 202.086 41.2603C201.927 41.2793 201.757 41.3028 201.638 41.4105C201.382 41.6424 201.533 42.0642 201.716 42.357C203.045 44.4829 205.27 45.9934 207.703 46.5985C210.135 47.2037 212.752 46.9304 215.074 45.9845C216.632 45.35 218.2 44.3988 219.866 44.637C220.662 44.7508 221.391 45.1317 222.11 45.4923C227.484 48.1874 233.423 50.0882 239.425 49.7468" stroke="#26211D" stroke-width="0.843984" stroke-miterlimit="10" stroke-linecap="round" stroke-linejoin="round"/>
<path d="M201.592 42.1218C200.12 42.1607 198.331 42.4709 197.012 43.1244C196.405 43.4251 195.864 43.843 195.336 44.2668C192.342 46.6675 189.577 49.3538 187.091 52.2769C186.485 52.9897 185.862 53.8161 185.926 54.7496C186.008 55.9516 187.277 56.8057 188.482 56.8112C189.686 56.8166 190.8 56.1862 191.773 55.4766C193.445 54.2574 194.891 52.7583 196.488 51.4412C198.084 50.1246 199.894 48.965 201.933 48.6084C203.278 48.3732 204.658 48.4983 206.021 48.4111C207.732 48.3012 209.325 47.9225 211.248 47.7083" stroke="#26211D" stroke-width="0.843984" stroke-miterlimit="10" stroke-linecap="round" stroke-linejoin="round"/>
<path d="M194.569 53.1253C193.719 54.4013 192.493 56.3129 191.788 57.6744C191.615 58.0088 191.443 58.3555 191.406 58.7301C191.314 59.6712 192.152 60.5208 193.081 60.698C194.01 60.8751 194.966 60.5213 195.765 60.0153C197.529 58.8991 198.726 57.09 200.302 55.7213C202.642 53.6884 205.731 52.7003 208.738 52.0691C209.714 51.8641 210.718 51.808 211.708 51.9248C212.346 51.9998 213.101 52.1199 213.785 52.3475C214.54 52.5987 214.596 53.6294 213.879 53.9744C210.302 55.6965 207.196 59.0297 204.719 62.05C204.072 62.8396 203.378 63.7615 203.871 64.8472C204.179 65.5244 204.868 65.9392 205.609 66.0096C207.191 66.1598 208.422 65.163 209.589 64.2487C214.4 60.481 219.987 57.3135 226.083 56.9074C230.541 56.6103 235.281 57.6798 239.162 55.4678C244.028 52.6948 250.592 50.8959 267.988 51.199" stroke="#26211D" stroke-width="0.843984" stroke-miterlimit="10" stroke-linecap="round" stroke-linejoin="round"/>
<path d="M244.102 47.5348C248.374 45.9698 252.816 44.8709 257.325 44.2639" stroke="#26211D" stroke-width="0.843984" stroke-miterlimit="10" stroke-linecap="round" stroke-linejoin="round"/>
<path d="M203.516 44.3088C204.408 44.268 205.299 44.1925 206.186 44.0825C206.767 44.0106 207.381 43.9084 207.823 43.5254C208.247 43.1583 208.445 42.5654 208.381 42.0084C208.318 41.4515 208.011 40.9365 207.587 40.5703" stroke="#26211D" stroke-width="0.421992" stroke-miterlimit="10" stroke-linecap="round" stroke-linejoin="round"/>
<path d="M183.326 37.1582C184.313 36.6884 185.291 36.2006 186.26 35.6951C186.606 35.5145 186.955 35.3293 187.245 35.0681C187.535 34.807 187.765 34.459 187.807 34.0709" stroke="#26211D" stroke-width="0.421992" stroke-miterlimit="10" stroke-linecap="round" stroke-linejoin="round"/>
<path d="M200.186 48.5116C199.131 47.8942 198.407 46.7435 198.307 45.5248" stroke="#26211D" stroke-width="0.421992" stroke-miterlimit="10" stroke-linecap="round" stroke-linejoin="round"/>
<path d="M198.84 48.3931C198.436 48.108 198.115 47.7082 197.923 47.2531" stroke="#26211D" stroke-width="0.421992" stroke-miterlimit="10" stroke-linecap="round" stroke-linejoin="round"/>
<path d="M193.286 52.7965C192.39 52.3552 191.65 51.6058 191.219 50.7048" stroke="#26211D" stroke-width="0.421992" stroke-miterlimit="10" stroke-linecap="round" stroke-linejoin="round"/>
<path d="M193.044 51.9773C192.789 51.7363 192.534 51.4952 192.279 51.2542" stroke="#26211D" stroke-width="0.421992" stroke-miterlimit="10" stroke-linecap="round" stroke-linejoin="round"/>
<path d="M198.596 56.3743C197.654 55.9982 196.796 55.4124 196.104 54.671" stroke="#26211D" stroke-width="0.421992" stroke-miterlimit="10" stroke-linecap="round" stroke-linejoin="round"/>
<path d="M197.974 55.4514C197.741 55.2771 197.509 55.1025 197.276 54.9283" stroke="#26211D" stroke-width="0.421992" stroke-miterlimit="10" stroke-linecap="round" stroke-linejoin="round"/>
<path d="M204.53 52.0683C203.983 51.6019 203.586 50.9627 203.411 50.2659" stroke="#26211D" stroke-width="0.421992" stroke-miterlimit="10" stroke-linecap="round" stroke-linejoin="round"/>
<path d="M205.189 51.4148C204.935 51.2815 204.72 51.0747 204.577 50.8265" stroke="#26211D" stroke-width="0.421992" stroke-miterlimit="10" stroke-linecap="round" stroke-linejoin="round"/>
<path d="M213.991 51.0215C213.472 50.5543 213.165 49.8605 213.169 49.1623" stroke="#26211D" stroke-width="0.421992" stroke-miterlimit="10" stroke-linecap="round" stroke-linejoin="round"/>
<path d="M216.189 38.2183C218.809 37.4486 221.43 36.6791 224.051 35.9094" stroke="#26211D" stroke-width="0.421992" stroke-miterlimit="10" stroke-linecap="round" stroke-linejoin="round"/>
<path d="M223.843 45.672C223.363 44.9075 223.32 43.887 223.735 43.085" stroke="#26211D" stroke-width="0.421992" stroke-miterlimit="10" stroke-linecap="round" stroke-linejoin="round"/>
<path d="M224.813 45.2146C224.76 44.8228 224.706 44.4314 224.653 44.0395" stroke="#26211D" stroke-width="0.421992" stroke-miterlimit="10" stroke-linecap="round" stroke-linejoin="round"/>
<path d="M196.766 37.5139C196.041 36.9029 195.624 35.9427 195.673 34.9958" stroke="#26211D" stroke-width="0.421992" stroke-miterlimit="10" stroke-linecap="round" stroke-linejoin="round"/>
<path d="M195.561 37.3734C195.167 36.8543 194.851 36.2758 194.628 35.6629" stroke="#26211D" stroke-width="0.421992" stroke-miterlimit="10" stroke-linecap="round" stroke-linejoin="round"/>
<path d="M207.59 39.1094C207.115 37.9085 207.371 36.4514 208.226 35.4837" stroke="#26211D" stroke-width="0.421992" stroke-miterlimit="10" stroke-linecap="round" stroke-linejoin="round"/>
<path d="M208.954 38.2888C208.889 37.9153 208.823 37.5417 208.758 37.1682" stroke="#26211D" stroke-width="0.421992" stroke-miterlimit="10" stroke-linecap="round" stroke-linejoin="round"/>
<path d="M220.886 46.6942C221.674 49.6755 223.096 52.4875 225.031 54.8886" stroke="#26211D" stroke-width="0.421992" stroke-miterlimit="10" stroke-linecap="round" stroke-linejoin="round"/>
<path d="M223.423 48.9315C223.554 49.6719 223.861 50.3803 224.311 50.9827" stroke="#26211D" stroke-width="0.421992" stroke-miterlimit="10" stroke-linecap="round" stroke-linejoin="round"/>
<path d="M215.631 55.0049C216.232 56.2356 217.203 57.2828 218.384 57.9762" stroke="#26211D" stroke-width="0.421992" stroke-miterlimit="10" stroke-linecap="round" stroke-linejoin="round"/>
<path d="M216.72 55.1989C217.105 55.6611 217.49 56.1235 217.875 56.5857" stroke="#26211D" stroke-width="0.421992" stroke-miterlimit="10" stroke-linecap="round" stroke-linejoin="round"/>
<path d="M210.564 59.4786C210.879 59.8071 211.195 60.1357 211.511 60.4641" stroke="#26211D" stroke-width="0.421992" stroke-miterlimit="10" stroke-linecap="round" stroke-linejoin="round"/>
<path d="M206.618 62.689C207.159 63.2312 207.808 63.6647 208.516 63.9569" stroke="#26211D" stroke-width="0.421992" stroke-miterlimit="10" stroke-linecap="round" stroke-linejoin="round"/>
<path d="M207.31 62.2787C207.542 62.4938 207.773 62.7092 208.004 62.9244" stroke="#26211D" stroke-width="0.421992" stroke-miterlimit="10" stroke-linecap="round" stroke-linejoin="round"/>
<path d="M236.407 55.0673C235.601 54.6925 234.946 54.0056 234.61 53.1831" stroke="#26211D" stroke-width="0.421992" stroke-miterlimit="10" stroke-linecap="round" stroke-linejoin="round"/>
</svg>
