<svg>
<symbol stroke-width="0" viewBox="0 0 24 24" xmlns="http://www.w3.org/2000/svg" id="user"><path d="M12 2a5 5 0 1 0 5 5 5 5 0 0 0-5-5zm0 8a3 3 0 1 1 3-3 3 3 0 0 1-3 3zm9 11v-1a7 7 0 0 0-7-7h-4a7 7 0 0 0-7 7v1h2v-1a5 5 0 0 1 5-5h4a5 5 0 0 1 5 5v1z"></path></symbol>

<symbol xmlns="http://www.w3.org/2000/svg" viewBox="0 0 32 32" id="home"><path d="M16 2.594l-.72.687-13 13 1.44 1.44L5 16.437V28h9V18h4v10h9V16.437l1.28 1.282 1.44-1.44-13-13-.72-.686zm0 2.844l9 9V26h-5V16h-8v10H7V14.437l9-9z"/></symbol>

<symbol stroke-width="0" viewBox="0 0 28 48" xmlns="http://www.w3.org/2000/svg" id="left"><path d="M26.2583 1.53454C26.9194 2.19716 27.2908 3.09574 27.2908 4.03268C27.2908 4.96962 26.9194 5.8682 26.2583 6.53082L8.8027 24.0213L26.2583 41.5118C26.9007 42.1783 27.2561 43.0708 27.2481 43.9973C27.24 44.9237 26.8692 45.81 26.2153 46.4651C25.5615 47.1202 24.6771 47.4918 23.7525 47.4999C22.8278 47.5079 21.9371 47.1518 21.272 46.5081L11.2976 36.5138L1.32325 26.5195C0.662153 25.8569 0.290771 24.9583 0.290771 24.0213C0.290771 23.0844 0.662153 22.1858 1.32325 21.5232L21.272 1.53454C21.9333 0.872125 22.8301 0.5 23.7651 0.5C24.7002 0.5 25.597 0.872125 26.2583 1.53454Z"></path></symbol>

<symbol stroke-width="0" viewBox="0 0 28 48" xmlns="http://www.w3.org/2000/svg" id="right"><path d="M1.32325 1.53454C0.662155 2.19716 0.290771 3.09574 0.290771 4.03268C0.290771 4.96962 0.662155 5.8682 1.32325 6.53082L18.7788 24.0213L1.32325 41.5118C0.680891 42.1783 0.325451 43.0708 0.333485 43.9973C0.34152 44.9237 0.712385 45.81 1.36621 46.4651C2.02003 47.1202 2.90449 47.4918 3.82909 47.4999C4.7537 47.5079 5.64447 47.1518 6.30955 46.5081L16.2839 36.5138L26.2583 26.5195C26.9194 25.8569 27.2908 24.9583 27.2908 24.0213C27.2908 23.0844 26.9194 22.1858 26.2583 21.5232L6.30955 1.53454C5.64826 0.872125 4.75147 0.5 3.8164 0.5C2.88133 0.5 1.98454 0.872125 1.32325 1.53454Z"></path></symbol>  

<symbol stroke-width="0" viewBox="0 0 24 24" xmlns="http://www.w3.org/2000/svg" id="basket"><path d="M12.0049 2C15.3186 2 18.0049 4.68629 18.0049 8V9H22.0049V11H20.8379L20.0813 20.083C20.0381 20.6013 19.6048 21 19.0847 21H4.92502C4.40493 21 3.97166 20.6013 3.92847 20.083L3.17088 11H2.00488V9H6.00488V8C6.00488 4.68629 8.69117 2 12.0049 2ZM18.8309 11H5.17788L5.84488 19H18.1639L18.8309 11ZM13.0049 13V17H11.0049V13H13.0049ZM9.00488 13V17H7.00488V13H9.00488ZM17.0049 13V17H15.0049V13H17.0049ZM12.0049 4C9.86269 4 8.1138 5.68397 8.00978 7.80036L8.00488 8V9H16.0049V8C16.0049 5.8578 14.3209 4.10892 12.2045 4.0049L12.0049 4Z"></path></symbol>

<symbol stroke-width="0" viewBox="0 0 16 16" xmlns="http://www.w3.org/2000/svg" id="facebook"><path d="M16 8.049c0-4.446-3.582-8.05-8-8.05C3.58 0-.002 3.603-.002 8.05c0 4.017 2.926 7.347 6.75 7.951v-5.625h-2.03V8.05H6.75V6.275c0-2.017 1.195-3.131 3.022-3.131.876 0 1.791.157 1.791.157v1.98h-1.009c-.993 0-1.303.621-1.303 1.258v1.51h2.218l-.354 2.326H9.25V16c3.824-.604 6.75-3.934 6.75-7.951z"></path></symbol>

<symbol stroke-width="0" viewBox="0 0 16 16" xmlns="http://www.w3.org/2000/svg" id="instagram"><path d="M8 0C5.829 0 5.556.01 4.703.048 3.85.088 3.269.222 2.76.42a3.917 3.917 0 0 0-1.417.923A3.927 3.927 0 0 0 .42 2.76C.222 3.268.087 3.85.048 4.7.01 5.555 0 5.827 0 8.001c0 2.172.01 2.444.048 3.297.04.852.174 1.433.372 1.942.205.526.478.972.923 1.417.444.445.89.719 1.416.923.51.198 1.09.333 1.942.372C5.555 15.99 5.827 16 8 16s2.444-.01 3.298-.048c.851-.04 1.434-.174 1.943-.372a3.916 3.916 0 0 0 1.416-.923c.445-.445.718-.891.923-1.417.197-.509.332-1.09.372-1.942C15.99 10.445 16 10.173 16 8s-.01-2.445-.048-3.299c-.04-.851-.175-1.433-.372-1.941a3.926 3.926 0 0 0-.923-1.417A3.911 3.911 0 0 0 13.24.42c-.51-.198-1.092-.333-1.943-.372C10.443.01 10.172 0 7.998 0h.003zm-.717 1.442h.718c2.136 0 2.389.007 3.232.046.78.035 1.204.166 1.486.275.373.145.64.319.92.599.28.28.453.546.598.92.11.281.24.705.275 1.485.039.843.047 1.096.047 3.231s-.008 2.389-.047 3.232c-.035.78-.166 1.203-.275 1.485a2.47 2.47 0 0 1-.599.919c-.28.28-.546.453-.92.598-.28.11-.704.24-1.485.276-.843.038-1.096.047-3.232.047s-2.39-.009-3.233-.047c-.78-.036-1.203-.166-1.485-.276a2.478 2.478 0 0 1-.92-.598 2.48 2.48 0 0 1-.6-.92c-.109-.281-.24-.705-.275-1.485-.038-.843-.046-1.096-.046-3.233 0-2.136.008-2.388.046-3.231.036-.78.166-1.204.276-1.486.145-.373.319-.64.599-.92.28-.28.546-.453.92-.598.282-.11.705-.24 1.485-.276.738-.034 1.024-.044 2.515-.045v.002zm4.988 1.328a.96.96 0 1 0 0 1.92.96.96 0 0 0 0-1.92zm-4.27 1.122a4.109 4.109 0 1 0 0 8.217 4.109 4.109 0 0 0 0-8.217zm0 1.441a2.667 2.667 0 1 1 0 5.334 2.667 2.667 0 0 1 0-5.334z"></path></symbol>

<symbol stroke-width="0" viewBox="0 0 1024 1024" xmlns="http://www.w3.org/2000/svg" id="remove"><path d="M864 256H736v-80c0-35.3-28.7-64-64-64H352c-35.3 0-64 28.7-64 64v80H160c-17.7 0-32 14.3-32 32v32c0 4.4 3.6 8 8 8h60.4l24.7 523c1.6 34.1 29.8 61 63.9 61h454c34.2 0 62.3-26.8 63.9-61l24.7-523H888c4.4 0 8-3.6 8-8v-32c0-17.7-14.3-32-32-32zm-200 0H360v-72h304v72z"></path></symbol>

<symbol stroke-width="0" viewBox="0 0 1024 1024" xmlns="http://www.w3.org/2000/svg" id="heart"><path d="M923 283.6a260.04 260.04 0 0 0-56.9-82.8 264.4 264.4 0 0 0-84-55.5A265.34 265.34 0 0 0 679.7 125c-49.3 0-97.4 13.5-139.2 39-10 6.1-19.5 12.8-28.5 20.1-9-7.3-18.5-14-28.5-20.1-41.8-25.5-89.9-39-139.2-39-35.5 0-69.9 6.8-102.4 20.3-31.4 13-59.7 31.7-84 55.5a258.44 258.44 0 0 0-56.9 82.8c-13.9 32.3-21 66.6-21 101.9 0 33.3 6.8 68 20.3 103.3 11.3 29.5 27.5 60.1 48.2 91 32.8 48.9 77.9 99.9 133.9 151.6 92.8 85.7 184.7 144.9 188.6 147.3l23.7 15.2c10.5 6.7 24 6.7 34.5 0l23.7-15.2c3.9-2.5 95.7-61.6 188.6-147.3 56-51.7 101.1-102.7 133.9-151.6 20.7-30.9 37-61.5 48.2-91 13.5-35.3 20.3-70 20.3-103.3.1-35.3-7-69.6-20.9-101.9zM512 814.8S156 586.7 156 385.5C156 283.6 240.3 201 344.3 201c73.1 0 136.5 40.8 167.7 100.4C543.2 241.8 606.6 201 679.7 201c104 0 188.3 82.6 188.3 184.5 0 201.2-356 429.3-356 429.3z"></path></symbol>

<symbol stroke-width="0" viewBox="0 0 1024 1024" xmlns="http://www.w3.org/2000/svg" id="heart-filled"><path d="M923 283.6a260.04 260.04 0 0 0-56.9-82.8 264.4 264.4 0 0 0-84-55.5A265.34 265.34 0 0 0 679.7 125c-49.3 0-97.4 13.5-139.2 39-10 6.1-19.5 12.8-28.5 20.1-9-7.3-18.5-14-28.5-20.1-41.8-25.5-89.9-39-139.2-39-35.5 0-69.9 6.8-102.4 20.3-31.4 13-59.7 31.7-84 55.5a258.44 258.44 0 0 0-56.9 82.8c-13.9 32.3-21 66.6-21 101.9 0 33.3 6.8 68 20.3 103.3 11.3 29.5 27.5 60.1 48.2 91 32.8 48.9 77.9 99.9 133.9 151.6 92.8 85.7 184.7 144.9 188.6 147.3l23.7 15.2c10.5 6.7 24 6.7 34.5 0l23.7-15.2c3.9-2.5 95.7-61.6 188.6-147.3 56-51.7 101.1-102.7 133.9-151.6 20.7-30.9 37-61.5 48.2-91 13.5-35.3 20.3-70 20.3-103.3.1-35.3-7-69.6-20.9-101.9z"></path></symbol>

<symbol xmlns="http://www.w3.org/2000/svg" viewBox="0 0 31 41" id="point">
<path fill-rule="evenodd" clip-rule="evenodd" d="M15.5969 39.5943C16.412 39.5943 30.9759 24.1279 30.9759 15.6858C30.9759 7.24378 24.0904 0.400146 15.5969 0.400146C7.10339 0.400146 0.218033 7.24378 0.218033 15.6858C0.218033 24.1279 14.7819 39.5943 15.5969 39.5943ZM15.597 23.3313C19.9032 23.3313 23.3941 19.8615 23.3941 15.5813C23.3941 11.3012 19.9032 7.83146 15.597 7.83146C11.2907 7.83146 7.79986 11.3012 7.79986 15.5813C7.79986 19.8615 11.2907 23.3313 15.597 23.3313Z" fill="#1DAEEF"/>
<path fill-rule="evenodd" clip-rule="evenodd" d="M0.218033 15.6858C0.218033 24.1279 14.7819 39.5943 15.5969 39.5943V23.3313C11.2907 23.3311 7.79986 19.8614 7.79986 15.5813C7.79986 11.3012 11.2907 7.83148 15.5969 7.83146V0.400146C7.10339 0.400146 0.218033 7.24378 0.218033 15.6858Z" fill="#3EC3FF"/>
</symbol>

<symbol fill="none" xmlns="http://www.w3.org/2000/svg" viewBox="0 0 274 93" id="logo">
<path d="m2.147 38.865 11-5.487c2.424-1.21 4.863-2.425 7.453-3.222 2.598-.8 5.306-1.168 8.003-1.508A459.5 459.5 0 0 1 54.26 26.14c1.289-.09 2.604-.171 3.854.151 1.071.277 2.044.837 3 1.39l10.48 6.064c2.305 1.333 4.62 2.673 6.69 4.344 4.9 3.954 8.266 9.618 13.397 13.267-.582 1.364-2.262 1.702-3.717 1.416-1.455-.287-2.477-1.106-3.658-2.001-2.694-2.041-4.55-3.558-7.254-5.909" stroke="#26211D" stroke-width=".844" stroke-miterlimit="10" stroke-linecap="round" stroke-linejoin="round"></path>
<path d="m59.672 29.667 13.565 9.316c.694.477 1.4.964 1.924 1.624.587.738.91 1.644 1.235 2.528a97.287 97.287 0 0 0 5.338 11.931c.659 1.242 1.35 2.482 1.746 3.83-2.484 1.16-5.759.2-7.225-2.116" stroke="#26211D" stroke-width=".844" stroke-miterlimit="10" stroke-linecap="round" stroke-linejoin="round"></path>
<path d="M57.466 33.548c4.185 2.721 8.444 5.508 11.586 9.388 1.449 1.788 2.63 3.775 3.807 5.754l4.489 7.553c-.411.353-.998.405-1.539.383-2.466-.099-4.772-1.39-6.526-3.127-1.755-1.737-3.022-3.898-4.17-6.084-.247-.468-.496-.949-.877-1.316-.473-.458-1.108-.7-1.706-.975a13.53 13.53 0 0 1-4.733-3.634c-1.993.214-4.093-.314-6.086-.1-.356.037-1.786.915-4.01 1.36-3.37.676-3.62.838-7.04.975a33.078 33.078 0 0 0-4.756.555c-1.156.22-2.313.459-3.485.563-2.097.188-3.34-.91-5.414-.549-3.528.614-7.19 3.79-9.906 6.122-3.002 2.578-6.292 5.81-9.964 9.9" stroke="#26211D" stroke-width=".844" stroke-miterlimit="10" stroke-linecap="round" stroke-linejoin="round"></path>
<path d="M32.044 44.914c2.277 2.29 6.109 3.231 9.25 3.981 3.14.75 5.504 1.234 8.619 2.085 5.739 1.569 11.141 4.528 17.058 5.148 1.69.177 3.361.577 4.366-.792M55.223 41.528a9.789 9.789 0 0 1-1.189 2.119c-.095.129-.198.268-.198.429 0 .208.169.372.326.51.458.4.923.804 1.47 1.07.332.163.689.27 1.044.376 3.327.993 6.505 1.987 9.621 3.518" stroke="#26211D" stroke-width=".844" stroke-miterlimit="10" stroke-linecap="round" stroke-linejoin="round"></path>
<path d="M53.88 43.896c-.678 2.238-2.556 3.909-4.544 5.14M67.373 31.29l3.424.799c3.23.753 6.467 1.508 9.595 2.61.896.316 1.782.66 2.686.954 2.969.968 6.088 1.39 9.099 2.22.267.074.57.185.66.448.045.134.022.282-.006.42-.232 1.134-.885 2.278-1.974 2.667-.624.223-1.307.172-1.967.119-2.56-.207-4.916-.327-7.475-.534" stroke="#26211D" stroke-width=".844" stroke-miterlimit="10" stroke-linecap="round" stroke-linejoin="round"></path>
<path d="M74.46 51.874c-.33.253-.5.677-.52 1.093-.019.416.094.827.24 1.217a7.412 7.412 0 0 0 1.404 2.334M80.733 53.16c-.391.08-.694.418-.824.795-.13.378-.112.791-.048 1.185.25 1.56 1.151 2.934 2.125 4.179M87.89 48.247c-.17.237-.193.557-.12.839.074.282.233.535.401.773a8.593 8.593 0 0 0 2.696 2.464" stroke="#26211D" stroke-width=".422" stroke-miterlimit="10" stroke-linecap="round" stroke-linejoin="round"></path>
<path d="M51.497 41.32a5.469 5.469 0 0 0-.928-2.462M22.834 44.468a11.793 11.793 0 0 1 4.48-2.035c.838-.184 1.748-.267 2.524.1M57.681 41.42a2.707 2.707 0 0 0-.233-1.857" stroke="#26211D" stroke-width=".844" stroke-miterlimit="10" stroke-linecap="round" stroke-linejoin="round"></path>
<path d="M87.919 37.164c.144.696.72 1.24 1.368 1.533.648.292 1.368.373 2.075.451l1.012.112M32.831 43.73c.588-.626.892-1.51.812-2.365M34.28 43.482c.304-.371.516-.819.61-1.29M48.12 41.502a3.124 3.124 0 0 0 .485-1.57M64.7 45.377a6.694 6.694 0 0 0 2.303-1.188M65.573 45.965l1.11-.266M82.345 40.393a5.324 5.324 0 0 0 1.21-3.072M83.768 40.127c.305-.394.508-.865.583-1.357M77.715 44.222a2.85 2.85 0 0 0 1.549-.704M73.458 42.312a9.254 9.254 0 0 1 1.686-1.316M74.588 42.643l.604-.319M65.454 37.312a.777.777 0 0 1 .438-.41M78.74 52.61a2.464 2.464 0 0 1 1.418-.855M86.333 48.528l.683-.762M63.38 50.1a5.424 5.424 0 0 0-.88 4.17M62.44 50.721a2.2 2.2 0 0 0-.766 1.418M55.067 46.937a10.688 10.688 0 0 0-1.383 3.94M54.972 48.723l-.538 1.273M34.935 46.132a3.395 3.395 0 0 0 2.476-1.326M36.154 46.49a3.983 3.983 0 0 0 2.145-1.038M37.521 46.859l.881-.331M42.937 47.91l.258-.077M46.086 48.607l.605-.318" stroke="#26211D" stroke-width=".422" stroke-miterlimit="10" stroke-linecap="round" stroke-linejoin="round"></path>
<path d="M101.155 47.484c-.214-.235-.352-.437-.416-.608-.064-.15-.075-.341-.032-.576.064-.213.149-.523.256-.928.17-.683.352-1.248.544-1.696.213-.47.416-.95.608-1.44.213-.512.394-1.163.544-1.952.341-.79.64-1.536.896-2.24.277-.704.49-1.28.64-1.728l.224-.672c.021-.085.117-.31.288-.672.17-.363.384-.8.64-1.312.277-.533.533-1.067.768-1.6.362-1.024.65-1.899.864-2.624.234-.747.469-1.419.704-2.016a9.276 9.276 0 0 1 .928-1.76c.256-.448.554-.736.896-.864.341-.128.661-.117.96.032.32.128.544.405.672.832.106.213.192.47.256.768.085.299.16.736.224 1.312.064.555.106 1.344.128 2.368.042 1.216.053 2.421.032 3.616a80.594 80.594 0 0 0 0 3.264c.042 1.003.16 1.856.352 2.56.064.384.149.853.256 1.408l.384 1.6c.149.533.288.981.416 1.344.149.363.266.544.352.544.106 0 .245-.139.416-.416.192-.277.426-.779.704-1.504.298-.725.65-1.75 1.056-3.072.405-1.344.864-3.061 1.376-5.152.106-.363.245-.95.416-1.76.192-.81.33-1.632.416-2.464.149-.533.298-1.12.448-1.76.149-.64.277-1.205.384-1.696.128-.49.192-.768.192-.832v-.384a.82.82 0 0 0 0-.32c.106 0 .202-.139.288-.416.085-.299.128-.555.128-.768 0-.363.042-.65.128-.864.106-.235.213-.405.32-.512.064-.17.224-.245.48-.224.256 0 .512.064.768.192s.416.299.48.512c.042.235-.022.768-.192 1.6-.15.81-.384 1.91-.704 3.296 0 .235-.064.619-.192 1.152-.128.533-.267 1.099-.416 1.696-.128.597-.224 1.11-.288 1.536a27.11 27.11 0 0 1-.288 1.568c-.107.47-.214.693-.32.672-.555 2.41-1.142 4.47-1.76 6.176-.598 1.685-1.131 3.061-1.6 4.128-.512 1.173-1.078 1.877-1.696 2.112-.598.256-1.238-.053-1.92-.928a8.708 8.708 0 0 1-.96-1.632 10.191 10.191 0 0 1-.576-1.92c-.15-.747-.331-1.664-.544-2.752a8.908 8.908 0 0 1-.544-2.656c-.022-.896.01-1.813.096-2.752.085-.96.149-1.952.192-2.976-.022-1.024-.064-1.707-.128-2.048-.064-.341-.192-.32-.384.064-.171.363-.459 1.11-.864 2.24-.15.405-.352.896-.608 1.472l-.704 1.728a75.07 75.07 0 0 0-.608 1.472c-.171.405-.278.661-.32.768-.128.256-.278.597-.448 1.024-.171.405-.31.843-.416 1.312-.768 2.005-1.344 3.605-1.728 4.8a58.086 58.086 0 0 1-.8 2.496c-.214.597-.438.992-.672 1.184-.235.213-.566.096-.992-.352Zm21.46-2.464c-.277 0-.501-.053-.672-.16a12.03 12.03 0 0 1-.576-.448c-.405-.427-.693-.832-.864-1.216-.171-.405-.224-.79-.16-1.152.064-.17.085-.33.064-.48v-.256c-.107-.107-.139-.17-.096-.192a.746.746 0 0 0 .128-.192c.128 0 .171-.117.128-.352-.043-.17.043-.544.256-1.12.213-.576.48-1.12.8-1.632.128-.213.32-.49.576-.832.256-.363.533-.715.832-1.056.32-.363.608-.65.864-.864.533-.448 1.003-.779 1.408-.992a5.35 5.35 0 0 1 1.312-.48c.469-.107.789-.16.96-.16.192 0 .448.17.768.512.491.213.843.47 1.056.768.235.299.384.736.448 1.312.064.64.011 1.376-.16 2.208-.149.81-.651 1.824-1.504 3.04-.533.768-1.024 1.344-1.472 1.728-.448.363-.981.725-1.6 1.088a7.15 7.15 0 0 1-1.216.672 5.223 5.223 0 0 1-1.28.256Zm3.072-3.392c.512-.576.917-1.12 1.216-1.632.32-.512.619-1.163.896-1.952.085-.235.139-.523.16-.864a4.974 4.974 0 0 0-.032-.992c-.021-.32-.096-.501-.224-.544-.256-.15-.565-.192-.928-.128-.363.043-.757.245-1.184.608-.661.555-1.237 1.248-1.728 2.08-.491.81-.971 1.739-1.44 2.784-.32.768-.395 1.387-.224 1.856.192.448.587.608 1.184.48.619-.15 1.387-.715 2.304-1.696Zm7.953 4a5.256 5.256 0 0 1-1.152-.672c-.363-.299-.597-.544-.704-.736 0-.192.032-.32.096-.384.064-.085.245-.117.544-.096.32 0 .832.043 1.536.128.256 0 .576-.021.96-.064a7.195 7.195 0 0 0 1.056-.192c.341-.085.533-.192.576-.32.107 0 .128-.032.064-.096a2.441 2.441 0 0 0-.224-.256.576.576 0 0 1-.288-.096c-.107-.085-.203-.128-.288-.128 0-.107-.107-.224-.32-.352a2.508 2.508 0 0 0-.608-.352 48.719 48.719 0 0 1-1.216-1.024c-.341-.32-.469-.533-.384-.64v-.16c-.149 0-.32-.213-.512-.64-.171-.427-.256-.81-.256-1.152 0-.256.075-.576.224-.96.149-.405.352-.821.608-1.248a5.47 5.47 0 0 1 .8-1.056c.384-.363.864-.747 1.44-1.152.576-.427 1.141-.8 1.696-1.12.576-.341 1.056-.565 1.44-.672.384-.15.736-.224 1.056-.224.341 0 .64.075.896.224.213.107.405.267.576.48.192.192.352.395.48.608.149.192.245.363.288.512 0 .256-.021.544-.064.864a4.046 4.046 0 0 1-.192.8c-.064.235-.171.352-.32.352l-.096.032c-.043 0-.064.053-.064.16 0 .213-.16.459-.48.736-.405.277-.757.448-1.056.512-.299.043-.48-.075-.544-.352a.823.823 0 0 1-.128-.224c-.021-.064-.075-.096-.16-.096l-.096-.096c-.064-.064-.096-.17-.096-.32 0-.085.032-.16.096-.224l.096-.128c.107 0 .245-.117.416-.352.171-.256.32-.523.448-.8.149-.299.224-.501.224-.608 0-.128-.021-.203-.064-.224-.021-.021-.117-.032-.288-.032-.299.128-.661.299-1.088.512-.427.213-.832.427-1.216.64-.363.192-.629.373-.8.544a7.97 7.97 0 0 0-.16.288c-.021.021-.075.032-.16.032 0-.085-.075-.043-.224.128-.128.15-.299.363-.512.64l-.576.832-.384.576c-.043.043-.096.17-.16.384a2.491 2.491 0 0 0-.064.544c-.085.256-.075.437.032.544.107.085.341.277.704.576a35.744 35.744 0 0 1 1.76 1.376c.427.363.747.661.96.896.213.235.341.448.384.64.384.64.501 1.13.352 1.472-.149.341-.512.64-1.088.896-.213.107-.565.192-1.056.256-.491.064-.992.096-1.504.096-.512.021-.917.01-1.216-.032Zm12.954-.192a3.54 3.54 0 0 1-.736-.288 8.326 8.326 0 0 1-.768-.608 6.436 6.436 0 0 1-.608-.96 3.613 3.613 0 0 1-.256-1.024 15.338 15.338 0 0 1-.064-1.536c0-.256.043-.64.128-1.152.107-.512.224-1.045.352-1.6.15-.576.278-1.088.384-1.536.128-.448.203-.736.224-.864.064-.277-.042-.437-.32-.48a4.343 4.343 0 0 0-.928-.032c-.32 0-.533-.032-.64-.096-.085-.021-.128-.053-.128-.096v-.096c0-.085-.01-.139-.032-.16 0-.043-.032-.117-.096-.224-.042-.085-.021-.203.064-.352.107-.17.278-.277.512-.32a5.31 5.31 0 0 1 .768-.096 5.85 5.85 0 0 0 1.024-.224c.342-.128.619-.32.832-.576.192-.47.416-.992.672-1.568.256-.576.502-1.088.736-1.536.256-.47.427-.757.512-.864.363-.192.63-.267.8-.224.171.021.363.203.576.544.107.15.182.267.224.352.064.085.075.213.032.384-.042.17-.16.437-.352.8-.17.363-.437.885-.8 1.568l-.288.576-.128.224c.086.021.214.032.384.032.171 0 .384-.01.64-.032a7.7 7.7 0 0 1 .896-.096c.363-.043.651-.043.864 0 .491 0 .854.096 1.088.288.235.17.363.47.384.896.043.235-.01.373-.16.416-.128.043-.48.064-1.056.064-.192 0-.49.01-.896.032-.405.021-.832.043-1.28.064-.426.021-.8.053-1.12.096-.298.021-.448.053-.448.096-.064.043-.17.245-.32.608-.128.363-.266.779-.416 1.248-.128.448-.245.853-.352 1.216-.149.725-.266 1.45-.352 2.176a11.52 11.52 0 0 0-.032 1.888c.043.533.16.907.352 1.12.192.192.566.235 1.12.128.555-.128 1.003-.33 1.344-.608.384-.32.694-.48.928-.48.256 0 .395.117.416.352.043.213-.074.523-.352.928a4.356 4.356 0 0 1-.96 1.024 4.06 4.06 0 0 1-1.216.608 2.111 2.111 0 0 1-1.152 0Zm8.194-.672c-.107.213-.267.277-.48.192a3.261 3.261 0 0 1-.48-.256.597.597 0 0 1-.384-.128.685.685 0 0 1-.224-.384 1.014 1.014 0 0 1-.032-.448c.021-.192.064-.405.128-.64.085-.256.171-.533.256-.832.171-.704.288-1.216.352-1.536.064-.32.128-.597.192-.832s.149-.576.256-1.024c.171-.427.309-.843.416-1.248.107-.405.267-.81.48-1.216.149-.555.331-1.077.544-1.568.235-.512.459-.939.672-1.28.043-.064.117-.15.224-.256.128-.107.235-.16.32-.16.171-.17.32-.235.448-.192.149.021.331.117.544.288.256.277.352.597.288.96-.043.363-.299.896-.768 1.6a47.055 47.055 0 0 1-.704 1.728c-.213.47-.363.917-.448 1.344.235-.341.491-.65.768-.928l.736-.736c.469-.47.853-.81 1.152-1.024.32-.213.693-.459 1.12-.736.256-.17.501-.32.736-.448a2.45 2.45 0 0 1 .768-.32c.299-.064.619-.064.96 0a.56.56 0 0 1 .512.192c.149.15.267.352.352.608.085.256.139.555.16.896-.491-.107-.928-.085-1.312.064a3.896 3.896 0 0 0-.992.48c-.256.192-.459.341-.608.448-.32.213-.725.501-1.216.864a10.9 10.9 0 0 0-1.472 1.248c-.384.427-.715.79-.992 1.088-.256.299-.469.565-.64.8-.149.235-.267.48-.352.736-.213.49-.437 1.024-.672 1.6-.235.576-.437.928-.608 1.056Zm12.651-.192c-.17.043-.394.064-.672.064a6.236 6.236 0 0 1-.736-.096c-.192-.064-.288-.128-.288-.192 0-.107-.053-.16-.16-.16l-.16-.128a1.401 1.401 0 0 0-.416-.256 1.744 1.744 0 0 1-.288-.96c0-.363.096-.928.288-1.696.064-.533.267-1.152.608-1.856.363-.725.8-1.461 1.312-2.208a17.567 17.567 0 0 1 1.6-2.016c.576-.597 1.099-1.035 1.568-1.312a1.602 1.602 0 0 1 1.088-.48 2.23 2.23 0 0 1 1.216.288c.214.107.427.277.64.512.214.235.416.49.608.768.192.277.352.555.48.832.064.235.096.448.096.64.022.17.022.384 0 .64 0 .256-.032.64-.096 1.152-.106.384-.202.853-.288 1.408a12.804 12.804 0 0 0-.096 1.44c-.042.405 0 .693.128.864.15.17.363.181.64.032.256-.128.502-.181.736-.16.235 0 .416.064.544.192.15.128.224.32.224.576 0 .256-.128.523-.384.8a3.27 3.27 0 0 1-.896.672c-.341.17-.672.256-.992.256-.234 0-.458-.139-.672-.416a5.49 5.49 0 0 1-.576-1.056 90.966 90.966 0 0 1-.416-1.216l-.192-.736-1.376 1.312c-.277.299-.554.576-.832.832-.256.235-.416.405-.48.512-.106.192-.309.384-.608.576-.277.192-.661.384-1.152.576Zm.096-1.888c.363-.213.779-.523 1.248-.928.47-.427.928-.885 1.376-1.376a16.72 16.72 0 0 0 1.12-1.408 7.6 7.6 0 0 0 .832-1.376c.192-.427.331-.832.416-1.216a2.886 2.886 0 0 0-.416-.736c-.192-.277-.362-.427-.512-.448-.469 0-.97.299-1.504.896a23.43 23.43 0 0 0-1.504 1.888 6.593 6.593 0 0 0-.352.512c-.149.235-.298.459-.448.672l-.256.384c-.064.085-.192.33-.384.736-.17.384-.341.779-.512 1.184-.17.384-.256.64-.256.768s.011.267.032.416c.043.15.15.245.32.288.171.043.438-.043.8-.256Zm-55.486 30.984h-.32c-.128.021-.245-.064-.352-.256-.085-.107-.138-.267-.16-.48 0-.213.054-.597.16-1.152.107-.363.192-.725.256-1.088.064-.341.096-.597.096-.768 0-.085.022-.256.064-.512.064-.235.096-.405.096-.512.107-.17.192-.405.256-.704.064-.299.096-.565.096-.8 0-.256.128-.49.384-.704 0-.17.032-.384.096-.64.086-.256.128-.427.128-.512.064-.299.203-.821.416-1.568.235-.768.512-1.632.832-2.592.342-.96.672-1.899.992-2.816.32-.917.608-1.696.864-2.336.256-.597.427-1.11.512-1.536.107-.448.16-.779.16-.992 0-.085.022-.15.064-.192.043-.064.139-.181.288-.352.214-.213.395-.277.544-.192.171.085.374.213.608.384.171.277.288.512.352.704.086.192.086.523 0 .992 0 .32-.053.597-.16.832a3.86 3.86 0 0 1-.288.544c-.085.107-.106.15-.064.128.875-.405 1.643-.619 2.304-.64.683-.043 1.248.075 1.696.352.47.256.822.619 1.056 1.088.235.47.352 1.013.352 1.632 0 .256-.053.565-.16.928a4.779 4.779 0 0 1-.416.96c-.149.277-.288.48-.416.608-.085 0-.17.075-.256.224-.085.128-.17.277-.256.448-.17.213-.448.459-.832.736-.362.256-.725.47-1.088.64-.362.15-.629.192-.8.128l-.096.032c-.042 0-.064.053-.064.16 0 .043-.17.139-.512.288-.341.128-.736.256-1.184.384-.448.107-.842.16-1.184.16-.448 0-.768-.085-.96-.256a1.97 1.97 0 0 0-.16.192.525.525 0 0 0-.064.224c0 .128-.053.373-.16.736a7.639 7.639 0 0 1-.32.992c-.128.32-.245.48-.352.48l-.064.096c-.042.064-.021.15.064.256l-.032.352c0 .256-.053.47-.16.64 0 .17-.032.427-.096.768s-.138.597-.224.768c0 .256-.042.501-.128.736-.064.256-.138.384-.224.384-.085.021-.138.15-.16.384a7.771 7.771 0 0 0-.032.544c-.021.533-.128.95-.32 1.248-.192.299-.416.448-.672.448Zm3.872-10.688c.171 0 .523-.075 1.056-.224.534-.15 1.078-.33 1.632-.544.576-.235 1.003-.47 1.28-.704a5.265 5.265 0 0 0 1.28-1.664c.32-.64.299-1.248-.064-1.824-.17-.299-.48-.416-.928-.352-.448.043-.938.213-1.472.512a7.476 7.476 0 0 0-1.504 1.12c-.256.277-.49.619-.704 1.024-.213.405-.394.81-.544 1.216a4.767 4.767 0 0 0-.224 1.024c-.021.277.043.416.192.416Zm10.078 1.952c-.085 0-.192-.021-.32-.064l-.16-.096a.755.755 0 0 0-.096-.32 1.074 1.074 0 0 1-.064-.32c-.149-.085-.234-.17-.256-.256-.021-.107.011-.277.096-.512.128-.213.299-.555.512-1.024.214-.49.438-1.013.672-1.568.235-.576.459-1.141.672-1.696l.544-1.408c.15-.405.235-.65.256-.736 0-.085.032-.192.096-.32s.139-.235.224-.32c.171-.15.352-.16.544-.032.192.107.352.299.48.576.15.256.224.544.224.864 0 .15-.106.533-.32 1.152a34.386 34.386 0 0 1-.864 2.144 37.061 37.061 0 0 1-1.152 2.528c-.32.619-.522 1.013-.608 1.184-.085.15-.245.224-.48.224Zm4.704-12.128c-.256 0-.533-.096-.832-.288a3.626 3.626 0 0 1-.736-.768 1.852 1.852 0 0 1-.288-.96c0-.107.064-.256.192-.448l.384-.576c.128-.192.192-.31.192-.352.171 0 .299.01.384.032.107 0 .235.043.384.128.235.533.523.97.864 1.312.363.341.544.63.544.864 0 .47-.042.768-.128.896-.085.107-.405.16-.96.16Zm1.585 12.864a4.864 4.864 0 0 1-.96-.896c-.256-.341-.405-.79-.448-1.344-.064-.363.064-.821.384-1.376.341-.576.821-1.173 1.44-1.792a16.65 16.65 0 0 1 2.048-1.792 48.193 48.193 0 0 0 1.92-1.28c.384-.277.608-.48.672-.608.085-.128.085-.245 0-.352-.064-.085-.224-.128-.48-.128a69.612 69.612 0 0 1-.96-.096 8.551 8.551 0 0 1-.704.032c-.213 0-.469.01-.768.032a10.04 10.04 0 0 0-1.184.192c-.384.021-.651.021-.8 0-.128-.043-.267-.139-.416-.288a65.131 65.131 0 0 0-.288-.512c-.064-.15-.043-.256.064-.32a.6.6 0 0 1 .384-.48c.235-.085.747-.17 1.536-.256.171.021.501.032.992.032.512 0 1.077.043 1.696.128.896.107 1.568.213 2.016.32.448.085.757.203.928.352.192.15.32.363.384.64.128.32.16.597.096.832-.043.235-.256.501-.64.8-.363.299-.971.715-1.824 1.248-.576.405-1.12.821-1.632 1.248-.491.405-.928.8-1.312 1.184-.384.384-.725.747-1.024 1.088-.469.576-.757.95-.864 1.12-.085.17.032.31.352.416.085.085.235.139.448.16.213 0 .427-.01.64-.032h.768c.341-.021.544-.01.608.032.171.085.395.085.672 0 .299-.085.608-.17.928-.256.128-.021.331-.043.608-.064l.832-.064c.277-.043.48-.085.608-.128.235-.085.512-.128.832-.128.341-.021.555-.032.64-.032.128.107.181.256.16.448-.021.192-.128.384-.32.576-.192.192-.48.33-.864.416-.619.213-1.045.363-1.28.448a1.406 1.406 0 0 1-.576.064c-.405.107-.864.192-1.376.256-.512.043-1.024.075-1.536.096-.512.021-.981.043-1.408.064h-.992Zm9.71.096c-.448-.192-.747-.427-.896-.704-.15-.299-.118-.693.096-1.184.234-.512.693-1.163 1.376-1.952.704-.81 1.674-1.835 2.912-3.072.661-.661 1.184-1.28 1.568-1.856.384-.597.576-.96.576-1.088a32.4 32.4 0 0 0-3.168.096c-.79.064-1.344.043-1.664-.064-.32-.107-.512-.31-.576-.608-.171-.256-.192-.48-.064-.672.149-.192.352-.341.608-.448.277-.107.512-.16.704-.16.085-.064.33-.096.736-.096.426 0 .917.021 1.472.064.554.021 1.066.064 1.536.128.469.043.789.096.96.16.256.064.522.181.8.352.277.15.501.341.672.576.192.235.288.501.288.8 0 .235-.15.565-.448.992a8.698 8.698 0 0 1-.8.96c-.555.597-1.142 1.216-1.76 1.856-.598.64-1.184 1.27-1.76 1.888-.342.363-.704.747-1.088 1.152-.384.384-.598.725-.64 1.024.064.107.202.17.416.192.234.021.597 0 1.088-.064.49-.085 1.173-.192 2.048-.32.81-.277 1.461-.395 1.952-.352.49.043.757.203.8.48-.022.107-.107.267-.256.48-.15.192-.299.363-.448.512-.15.15-.256.224-.32.224l-.384.096c-.256.064-.566.139-.928.224l-1.024.256c-.918.235-1.632.395-2.144.48-.512.085-.928.096-1.248.032a3.9 3.9 0 0 1-.992-.384Zm9.773-.416a.963.963 0 0 0-.32-.384c-.128-.107-.192-.203-.192-.288 0-.085-.01-.17-.032-.256a.395.395 0 0 0-.128-.288c-.106-.128-.096-.416.032-.864.128-.47.342-1.035.64-1.696.299-.683.651-1.397 1.056-2.144a3.63 3.63 0 0 0 .512-.672c.171-.277.299-.459.384-.544 0-.085.032-.16.096-.224.064-.085.139-.128.224-.128v-.192c0-.107.096-.288.288-.544.214-.256.47-.533.768-.832.299-.32.608-.619.928-.896.32-.299.587-.512.8-.64.448-.299.907-.48 1.376-.544.491-.064.907.043 1.248.32l.32.32.512.512c.214.17.427.352.64.544l1.184 1.056-.576 1.6c-.277.853-.352 1.6-.224 2.24.15.64.363 1.195.64 1.664.107.235.32.459.64.672.342.213.662.341.96.384.171.021.331.085.48.192.15.107.224.277.224.512 0 .213-.042.384-.128.512-.085.128-.234.213-.448.256-.704.085-1.365-.085-1.984-.512-.597-.427-1.152-1.13-1.664-2.112a5.308 5.308 0 0 1-.352-.704 7.172 7.172 0 0 1-.224-.704l-.48.608c-.234.277-.416.48-.544.608-1.514 1.536-2.826 2.57-3.936 3.104-1.088.512-1.994.533-2.72.064Zm1.152-1.792c0 .15.224.15.672 0 .47-.17.971-.47 1.504-.896a31.702 31.702 0 0 0 2.176-2.048c.747-.747 1.344-1.44 1.792-2.08l.704-1.152c-.213-.49-.448-.821-.704-.992-.234-.192-.437-.288-.608-.288-.277 0-.693.256-1.248.768-.533.512-1.109 1.195-1.728 2.048a25.556 25.556 0 0 0-1.76 2.816c-.213.427-.405.843-.576 1.248l-.224.576Z" fill="#422F2F"></path>
<path d="m255.94 30.442-6.6 2.688c-2.218.903-4.454 1.811-6.808 2.253-4.493.842-9.109-.066-13.59-.971l-7.426-1.5c-1.387-.28-2.779-.561-4.191-.654-2.095-.138-4.192.14-6.288.267-4.834.291-9.685-.23-14.525-.05-4.839.182-9.839 1.15-13.722 4.045 1.118 1.943 3.568 2.726 5.809 2.717 2.241-.01 4.436-.638 6.673-.77 2.401-.142 4.794.29 7.161.719 2.043.37 4.222.651 6.265 1.022" stroke="#26211D" stroke-width=".844" stroke-miterlimit="10" stroke-linecap="round" stroke-linejoin="round"></path>
<path d="M215.189 38.65a85.884 85.884 0 0 1-13.103 2.61c-.159.02-.329.043-.448.15-.256.232-.105.654.078.947 1.329 2.126 3.554 3.636 5.987 4.242 2.432.605 5.049.331 7.371-.614 1.558-.635 3.126-1.586 4.792-1.348.796.114 1.525.495 2.244.855 5.374 2.695 11.313 4.596 17.315 4.255" stroke="#26211D" stroke-width=".844" stroke-miterlimit="10" stroke-linecap="round" stroke-linejoin="round"></path>
<path d="M201.592 42.122c-1.472.039-3.261.349-4.58 1.002-.607.301-1.148.719-1.676 1.143a60.585 60.585 0 0 0-8.245 8.01c-.606.713-1.229 1.54-1.165 2.473.082 1.202 1.351 2.056 2.556 2.061 1.204.006 2.318-.625 3.291-1.334 1.672-1.22 3.118-2.719 4.715-4.036 1.596-1.316 3.406-2.476 5.445-2.833 1.345-.235 2.725-.11 4.088-.197 1.711-.11 3.304-.489 5.227-.703" stroke="#26211D" stroke-width=".844" stroke-miterlimit="10" stroke-linecap="round" stroke-linejoin="round"></path>
<path d="M194.569 53.125c-.85 1.276-2.076 3.188-2.781 4.55-.173.334-.345.68-.382 1.055-.092.941.746 1.79 1.675 1.968.929.177 1.885-.177 2.684-.683 1.764-1.116 2.961-2.925 4.537-4.294 2.34-2.033 5.429-3.02 8.436-3.652a9.21 9.21 0 0 1 2.97-.144c.638.075 1.393.195 2.077.422.755.252.811 1.282.094 1.627-3.577 1.723-6.683 5.056-9.16 8.076-.647.79-1.341 1.712-.848 2.797.308.677.997 1.092 1.738 1.163 1.582.15 2.813-.847 3.98-1.761 4.811-3.768 10.398-6.935 16.494-7.342 4.458-.297 9.198.773 13.079-1.44 4.866-2.772 11.43-4.571 28.826-4.268M244.102 47.535a62.856 62.856 0 0 1 13.223-3.271" stroke="#26211D" stroke-width=".844" stroke-miterlimit="10" stroke-linecap="round" stroke-linejoin="round"></path>
<path d="M203.516 44.309c.892-.041 1.783-.116 2.67-.226.581-.072 1.195-.175 1.637-.558.424-.367.622-.96.558-1.517-.063-.556-.37-1.072-.794-1.438M183.326 37.158c.987-.47 1.965-.957 2.934-1.463.346-.18.695-.366.985-.627.29-.261.52-.609.562-.997M200.186 48.512a3.89 3.89 0 0 1-1.879-2.987M198.84 48.393a2.677 2.677 0 0 1-.917-1.14M193.286 52.797a4.531 4.531 0 0 1-2.067-2.092M193.044 51.977l-.765-.723M198.596 56.374a6.944 6.944 0 0 1-2.492-1.703M197.974 55.451l-.698-.523M204.53 52.068a3.51 3.51 0 0 1-1.119-1.802M205.189 51.415a1.534 1.534 0 0 1-.612-.588M213.991 51.022a2.516 2.516 0 0 1-.822-1.86M216.189 38.218l7.862-2.309M223.843 45.672a2.663 2.663 0 0 1-.108-2.587M224.813 45.215l-.16-1.176M196.766 37.514a3.135 3.135 0 0 1-1.093-2.518M195.561 37.373a6.525 6.525 0 0 1-.933-1.71M207.59 39.11c-.475-1.202-.219-2.659.636-3.626M208.954 38.289l-.196-1.12M220.886 46.694a22.11 22.11 0 0 0 4.145 8.195M223.423 48.931c.131.74.438 1.45.888 2.052M215.631 55.005a7.066 7.066 0 0 0 2.753 2.971M216.72 55.199l1.155 1.387M210.564 59.479l.947.985M206.618 62.689c.541.542 1.19.976 1.898 1.268M207.31 62.279l.694.645M236.407 55.067a3.603 3.603 0 0 1-1.797-1.884" stroke="#26211D" stroke-width=".422" stroke-miterlimit="10" stroke-linecap="round" stroke-linejoin="round"></path></symbol>
</svg>